<!-- Generated by IcoMoon.io -->
<svg version="1.1" xmlns="http://www.w3.org/2000/svg" width="32" height="32" viewBox="0 0 32 32">
<title>align--horizontal-right</title>
<path d="M4 24v-4c0.001-1.104 0.896-1.999 2-2h15c1.104 0.001 1.999 0.896 2 2v4c-0.001 1.104-0.896 1.999-2 2h-15c-1.104-0.001-1.999-0.896-2-2v-0zM6 24h15v-4l-15-0.001z"></path>
<path d="M12 12v-4c0.001-1.104 0.896-1.999 2-2h7c1.104 0.001 1.999 0.896 2 2v4c-0.001 1.104-0.896 1.999-2 2h-7c-1.104-0.001-1.999-0.896-2-2v-0zM14 12h7v-4l-7-0.001z"></path>
<path d="M28 30h-2v-28h2v28z"></path>
</svg>
