<!-- Generated by IcoMoon.io -->
<svg version="1.1" xmlns="http://www.w3.org/2000/svg" width="32" height="32" viewBox="0 0 32 32">
<title>align--horizontal-center</title>
<path d="M24 18h-7v-4h3c1.104-0.001 1.999-0.896 2-2v-4c-0.001-1.104-0.896-1.999-2-2h-3v-4h-2v4h-3c-1.104 0.001-1.999 0.896-2 2v4c0.001 1.104 0.896 1.999 2 2h3v4h-7c-1.104 0.001-1.999 0.896-2 2v4c0.001 1.104 0.896 1.999 2 2h7v4h2v-4h7c1.104-0.001 1.999-0.896 2-2v-4c-0.001-1.104-0.896-1.999-2-2h-0zM12 8h8v4h-8zM24 24h-16v-4h16z"></path>
</svg>
