<!-- Generated by IcoMoon.io -->
<svg version="1.1" xmlns="http://www.w3.org/2000/svg" width="32" height="32" viewBox="0 0 32 32">
<title>align--horizontal-left</title>
<path d="M26 26h-15c-1.104-0.001-1.999-0.896-2-2v-4c0.001-1.104 0.896-1.999 2-2h15c1.104 0.001 1.999 0.896 2 2v4c-0.001 1.104-0.896 1.999-2 2h-0zM26 19.999l-15 0.001v4h15z"></path>
<path d="M18 14h-7c-1.104-0.001-1.999-0.896-2-2v-4c0.001-1.104 0.896-1.999 2-2h7c1.104 0.001 1.999 0.896 2 2v4c-0.001 1.104-0.896 1.999-2 2h-0zM18 7.999l-7 0.001v4h7z"></path>
<path d="M4 2h2v28h-2v-28z"></path>
</svg>
