<!-- Generated by IcoMoon.io -->
<svg version="1.1" xmlns="http://www.w3.org/2000/svg" width="32" height="32" viewBox="0 0 32 32">
<title>align--vertical-center</title>
<path d="M30 15h-4v-3c-0.001-1.104-0.896-1.999-2-2h-4c-1.104 0.001-1.999 0.896-2 2v3h-4v-7c-0.001-1.104-0.896-1.999-2-2h-4c-1.104 0.001-1.999 0.896-2 2v7h-4v2h4v7c0.001 1.104 0.896 1.999 2 2h4c1.104-0.001 1.999-0.896 2-2v-7h4v3c0.001 1.104 0.896 1.999 2 2h4c1.104-0.001 1.999-0.896 2-2v-3h4zM8 24v-16h4l0.001 16zM20 20v-8h4l0.001 8z"></path>
</svg>
