<!-- Generated by IcoMoon.io -->
<svg version="1.1" xmlns="http://www.w3.org/2000/svg" width="32" height="32" viewBox="0 0 32 32">
<title>align--vertical-bottom</title>
<path d="M2 26h28v2h-28v-2z"></path>
<path d="M24 23h-4c-1.104-0.001-1.999-0.896-2-2v-7c0.001-1.104 0.896-1.999 2-2h4c1.104 0.001 1.999 0.896 2 2v7c-0.001 1.104-0.896 1.999-2 2h-0zM20 14v7h4.001l-0.001-7z"></path>
<path d="M12 23h-4c-1.104-0.001-1.999-0.896-2-2v-15c0.001-1.104 0.896-1.999 2-2h4c1.104 0.001 1.999 0.896 2 2v15c-0.001 1.104-0.896 1.999-2 2h-0zM8 6v15h4.001l-0.001-15z"></path>
</svg>
