<!-- Generated by IcoMoon.io -->
<svg version="1.1" xmlns="http://www.w3.org/2000/svg" width="32" height="32" viewBox="0 0 32 32">
<title>attachment</title>
<path d="M28.1 18.9l-15-15c-2.5-2.6-6.6-2.6-9.2-0.1s-2.6 6.7 0 9.2c0 0 0.1 0.1 0.1 0.1l2.8 2.9 1.4-1.4-2.9-2.9c-1.7-1.7-1.7-4.6 0-6.3s4.6-1.8 6.3-0.1c0 0 0 0 0.1 0.1l14.9 14.9c1.8 1.7 1.8 4.6 0.1 6.3-1.7 1.8-4.6 1.8-6.3 0.1 0 0 0 0-0.1-0.1l-7.4-7.4c-1-1-0.9-2.6 0-3.5 1-0.9 2.5-0.9 3.5 0l4.1 4.1 1.4-1.4c0 0-4.2-4.2-4.2-4.2-1.8-1.7-4.6-1.6-6.3 0.2-1.6 1.7-1.6 4.4 0 6.2l7.5 7.5c2.5 2.6 6.6 2.6 9.2 0.1s2.6-6.7 0-9.3c0 0.1 0 0 0 0v0z"></path>
</svg>
