<!-- Generated by IcoMoon.io -->
<svg version="1.1" xmlns="http://www.w3.org/2000/svg" width="32" height="32" viewBox="0 0 32 32">
<title>box--duplicate</title>
<path d="M16.5 24h-5c-1.1 0-2-0.9-2-2v-2c0-1.1 0.9-2 2-2h5c1.1 0 2 0.9 2 2v2c0 1.1-0.9 2-2 2zM11.5 20v2h5v-2h-5z"></path>
<path d="M24 8h-20c-1.1 0-2 0.9-2 2v4c0 1.1 0.9 2 2 2v12c0 1.1 0.9 2 2 2h16c1.1 0 2-0.9 2-2v-12c1.1 0 2-0.9 2-2v-4c0-1.1-0.9-2-2-2zM22 28h-16v-12h16v12zM24 14h-20v-4h20v4z"></path>
<path d="M28 8h2v-4c0-1.1-0.9-2-2-2h-4v2h4v4z"></path>
<path d="M17 2h4v2h-4z"></path>
<path d="M28 11h2v4h-2z"></path>
<path d="M10 8v-4h4v-2h-4c-1.1 0-2 0.9-2 2v4zM24 24h4c1.1 0 2-0.9 2-2v-4h-2v4h-4z"></path>
</svg>
