<!-- Generated by IcoMoon.io -->
<svg version="1.1" xmlns="http://www.w3.org/2000/svg" width="32" height="32" viewBox="0 0 32 32">
<title>bring-forward</title>
<path d="M12 15h-2v-3c0.001-1.104 0.896-1.999 2-2h3v2h-3z"></path>
<path d="M15 30h-3c-1.104-0.001-1.999-0.896-2-2v-3h2v3h3z"></path>
<path d="M18 28h4v2h-4v-2z"></path>
<path d="M28 30h-3v-2h3v-3h2v3c-0.001 1.104-0.896 1.999-2 2h-0z"></path>
<path d="M10 18h2v4h-2v-4z"></path>
<path d="M28 18h2v4h-2v-4z"></path>
<path d="M30 15h-2v-3h-3v-2h3c1.104 0.001 1.999 0.896 2 2v0z"></path>
<path d="M18 10h4v2h-4v-2z"></path>
<path d="M8 22h-4c-1.104-0.001-1.999-0.896-2-2v-16c0.001-1.104 0.896-1.999 2-2h16c1.104 0.001 1.999 0.896 2 2v4h-2v-4h-16v16h4z"></path>
</svg>
