<?xml version="1.0" encoding="utf-8"?>
<!-- Generator: Adobe Illustrator 25.2.0, SVG Export Plug-In . SVG Version: 6.00 Build 0)  -->
<svg version="1.1" id="Ebene_1" xmlns="http://www.w3.org/2000/svg" xmlns:xlink="http://www.w3.org/1999/xlink" x="0px" y="0px"
	 viewBox="0 0 32 32" style="enable-background:new 0 0 32 32;" xml:space="preserve">
<style type="text/css">
	.st0{fill:none;}
	.st1{fill:none;stroke:#212121;stroke-width:2;stroke-linecap:round;stroke-miterlimit:10;}
	.st2{fill:none;stroke:#212121;stroke-width:2;stroke-linecap:square;stroke-linejoin:round;stroke-miterlimit:10;}
	.st3{fill:none;stroke:#212121;stroke-width:2;stroke-linejoin:round;stroke-miterlimit:10;}
</style>
<path class="st0" d="M32,0v31c0,0.6-0.4,1-1,1H1c-0.6,0-1-0.4-1-1V0H32z"/>
<g>
	<path class="st1" d="M4,10h24"/>
	<path class="st2" d="M4,5v22c0,0.6,0.4,1,1,1h22c0.6,0,1-0.4,1-1V5c0-0.6-0.4-1-1-1H5C4.4,4,4,4.4,4,5z"/>
</g>
<line class="st3" x1="9" y1="1" x2="9" y2="7"/>
<line class="st3" x1="23" y1="1" x2="23" y2="7"/>
</svg>
