<!-- Generated by IcoMoon.io -->
<svg version="1.1" xmlns="http://www.w3.org/2000/svg" width="32" height="32" viewBox="0 0 32 32">
<title>camera</title>
<path d="M29 26h-26c-0.552 0-1-0.448-1-1v0-17c0-0.552 0.448-1 1-1v0h6.46l1.71-2.55c0.181-0.271 0.484-0.448 0.83-0.45h8c0.346 0.002 0.649 0.179 0.828 0.446l0.002 0.004 1.71 2.55h6.46c0.552 0 1 0.448 1 1v0 17c0 0.552-0.448 1-1 1v0zM4 24h24v-15h-6c-0.346-0.002-0.649-0.179-0.828-0.446l-0.002-0.004-1.71-2.55h-6.92l-1.71 2.55c-0.181 0.271-0.484 0.448-0.83 0.45h-6z"></path>
<path d="M16 22c-3.314 0-6-2.686-6-6s2.686-6 6-6c3.314 0 6 2.686 6 6v0c0 3.314-2.686 6-6 6v0zM16 12c-2.209 0-4 1.791-4 4s1.791 4 4 4c2.209 0 4-1.791 4-4v0c0-2.209-1.791-4-4-4v0z"></path>
</svg>
