<!-- Generated by IcoMoon.io -->
<svg version="1.1" xmlns="http://www.w3.org/2000/svg" width="32" height="32" viewBox="0 0 32 32">
<title>car</title>
<path d="M29.338 15.934l-7.732-2.778-3.232-4.059c-0.552-0.672-1.384-1.097-2.314-1.097-0.002 0-0.004 0-0.006 0h-7.996c-0 0-0.001 0-0.001 0-1.026 0-1.932 0.515-2.472 1.301l-0.007 0.010-2.711 3.983c-0.542 0.787-0.866 1.76-0.866 2.809 0 0.001 0 0.002 0 0.003v-0 7.893c0 0.552 0.448 1 1 1v0h2.142c0.453 1.738 2.008 3 3.858 3s3.405-1.262 3.852-2.972l0.006-0.028h6.284c0.453 1.738 2.008 3 3.858 3s3.405-1.262 3.852-2.972l0.006-0.028h2.142c0.552 0 1-0.448 1-1v0-7.125c0-0 0-0 0-0 0-0.431-0.273-0.798-0.655-0.939l-0.007-0.002zM9 26c-1.105 0-2-0.895-2-2s0.895-2 2-2c1.105 0 2 0.895 2 2v0c-0.002 1.104-0.896 1.998-2 2h-0zM23 26c-1.105 0-2-0.895-2-2s0.895-2 2-2c1.105 0 2 0.895 2 2v0c-0.001 1.104-0.896 1.999-2 2h-0zM28 23h-1.142c-0.453-1.738-2.008-3-3.858-3s-3.405 1.262-3.852 2.972l-0.006 0.028h-6.284c-0.453-1.738-2.008-3-3.858-3s-3.405 1.262-3.852 2.972l-0.006 0.028h-1.142v-6.893c0-0 0-0.001 0-0.001 0-0.63 0.194-1.215 0.527-1.697l-0.007 0.010 2.711-3.981c0.182-0.266 0.484-0.438 0.826-0.438 0 0 0 0 0 0h7.996c0.001 0 0.003 0 0.004 0 0.305 0 0.577 0.137 0.759 0.353l0.001 0.002 3.399 4.268c0.114 0.143 0.265 0.253 0.437 0.316l0.007 0.002 7.338 2.637z"></path>
</svg>
