<!-- Generated by IcoMoon.io -->
<svg version="1.1" xmlns="http://www.w3.org/2000/svg" width="32" height="32" viewBox="0 0 32 32">
<title>center-to-fit</title>
<path d="M8 2h-6v6h2v-4h4v-2z"></path>
<path d="M24 2h6v6h-2v-4h-4v-2z"></path>
<path d="M8 30h-6v-6h2v4h4v2z"></path>
<path d="M24 30h6v-6h-2v4h-4v2z"></path>
<path d="M24 24h-16c-1.104-0.001-1.999-0.896-2-2v-12c0.001-1.104 0.896-1.999 2-2h16c1.104 0.001 1.999 0.896 2 2v12c-0.001 1.104-0.896 1.999-2 2h-0zM8 10v12h16v-12z"></path>
</svg>
