<!-- Generated by IcoMoon.io -->
<svg version="1.1" xmlns="http://www.w3.org/2000/svg" width="32" height="32" viewBox="0 0 32 32">
<title>certificate</title>
<path d="M24 17l1.912 3.703 4.088 0.594-3 2.703 0.771 4-3.771-2.25-3.771 2.25 0.771-4-3-2.703 4.2-0.594 1.8-3.703z"></path>
<path d="M6 16h6v2h-6v-2z"></path>
<path d="M6 12h10v2h-10v-2z"></path>
<path d="M6 8h10v2h-10v-2z"></path>
<path d="M16 26h-12v-20h24v10h2v-10c0-1.105-0.895-2-2-2v0h-24c-1.105 0-2 0.895-2 2v0 20c0 1.105 0.895 2 2 2v0h12z"></path>
</svg>
