<?xml version="1.0" encoding="utf-8"?>
<!-- Generator: Adobe Illustrator 25.2.0, SVG Export Plug-In . SVG Version: 6.00 Build 0)  -->
<svg version="1.1" id="Ebene_1" xmlns="http://www.w3.org/2000/svg" xmlns:xlink="http://www.w3.org/1999/xlink" x="0px" y="0px"
	 viewBox="0 0 32 32" style="enable-background:new 0 0 32 32;" xml:space="preserve">
<style type="text/css">
	.st0{fill:none;}
</style>
<rect x="0" y="0" class="st0" width="32" height="32"/>
<g>
	<path d="M16,2C8.3,2,2,8.3,2,16c0,7.7,6.3,14,14,14s14-6.3,14-14C30,8.3,23.7,2,16,2z M16,28C9.4,28,4,22.6,4,16S9.4,4,16,4
		c6.6,0,12,5.4,12,12S22.6,28,16,28z"/>
	<path d="M16,6C10.5,6,6,10.5,6,16s4.5,10,10,10c5.5,0,10-4.5,10-10S21.5,6,16,6z"/>
</g>
</svg>
