<!-- Generated by IcoMoon.io -->
<svg version="1.1" xmlns="http://www.w3.org/2000/svg" width="32" height="32" viewBox="0 0 32 32">
<title>cloud--upload</title>
<path d="M11.3 19.3l1.4 1.4 2.3-2.3v11.6h2v-11.6l2.3 2.3 1.4-1.4-4.7-4.7z"></path>
<path d="M25 10.2c-0.5-4.6-4.3-8.2-9-8.2s-8.5 3.6-9 8.2c-2.9 0.7-5 3.3-5 6.3 0 3.5 3 6.5 6.5 6.5v-2c-2.4 0-4.5-2.1-4.5-4.5 0-2.3 1.8-4.3 4.1-4.5l0.9-0.1v-0.9c0-3.9 3.1-7 7-7s7 3.1 7 7v0.9l0.9 0.1c2.3 0.3 4.1 2.2 4.1 4.5 0 2.4-2.1 4.5-4.5 4.5v2c3.5 0 6.5-3 6.5-6.5 0-3.1-2.1-5.6-5-6.3z"></path>
</svg>
