<!-- Generated by IcoMoon.io -->
<svg version="1.1" xmlns="http://www.w3.org/2000/svg" width="32" height="32" viewBox="0 0 32 32">
<title>cloud-registry</title>
<path d="M28 30h-5c-1.104-0.001-1.999-0.896-2-2v-5c0.001-1.104 0.896-1.999 2-2h5c1.104 0.001 1.999 0.896 2 2v5c-0.001 1.104-0.896 1.999-2 2h-0zM23 23h-0.001l0.001 5h5v-5z"></path>
<path d="M16 23h-5c-1.104-0.001-1.999-0.896-2-2v-10c0.001-1.104 0.896-1.999 2-2h10c1.104 0.001 1.999 0.896 2 2v5h-2v-5h-10v10h5z"></path>
<path d="M16 30h-12c-1.104-0.001-1.999-0.896-2-2v-24c0.001-1.104 0.896-1.999 2-2h24c1.104 0.001 1.999 0.896 2 2v12h-2v-12h-24v24h12z"></path>
</svg>
