<!-- Generated by IcoMoon.io -->
<svg version="1.1" xmlns="http://www.w3.org/2000/svg" width="32" height="32" viewBox="0 0 32 32">
<title>copy--link</title>
<path d="M11.947 19c-0 0-0.001 0-0.001 0-2.732 0-4.948-2.215-4.948-4.948 0-1.366 0.554-2.604 1.45-3.499l5.105-5.104c0.895-0.896 2.133-1.449 3.499-1.449 2.733 0 4.948 2.215 4.948 4.948 0 1.366-0.554 2.603-1.449 3.499l-0.552 0.553-1.416-1.413 0.558-0.558c0.531-0.533 0.859-1.269 0.859-2.081 0-0.814-0.33-1.551-0.863-2.085l0 0c-0.541-0.517-1.276-0.835-2.085-0.835s-1.544 0.318-2.086 0.836l0.001-0.001-5.105 5.104c-0.534 0.533-0.864 1.27-0.864 2.085s0.33 1.551 0.864 2.085v0c0.541 0.517 1.276 0.835 2.085 0.835s1.544-0.318 2.086-0.836l-0.001 0.001 1.414 1.415c-0.891 0.895-2.124 1.449-3.486 1.449-0.005 0-0.010 0-0.014-0h0.001z"></path>
<path d="M19.947 17c-0 0-0.001 0-0.001 0-2.732 0-4.948-2.215-4.948-4.948 0-1.366 0.554-2.604 1.45-3.499l0.553-0.553 1.414 1.415-0.553 0.552c-0.534 0.533-0.863 1.27-0.863 2.084s0.33 1.551 0.863 2.084v0c0.541 0.517 1.276 0.835 2.085 0.835s1.544-0.318 2.086-0.836l-0.001 0.001c0.26-0.26 4.729-4.729 5.105-5.104 0.533-0.534 0.862-1.271 0.862-2.084s-0.329-1.551-0.862-2.084l0 0c-0.541-0.517-1.276-0.835-2.085-0.835s-1.544 0.318-2.086 0.836l0.001-0.001-1.414-1.415c0.895-0.894 2.131-1.446 3.496-1.446 2.733 0 4.948 2.215 4.948 4.948 0 1.365-0.553 2.601-1.446 3.496l0-0c-0.377 0.376-4.844 4.843-5.104 5.104-0.891 0.896-2.125 1.45-3.487 1.45-0.005 0-0.009 0-0.014-0h0.001z"></path>
<path d="M24 30h-20c-1.104-0.001-1.999-0.896-2-2v-20c0.001-1.104 0.896-1.999 2-2h4v2h-4v20h20v-10h2v10c-0.001 1.104-0.896 1.999-2 2h-0z"></path>
</svg>
