<!-- Generated by IcoMoon.io -->
<svg version="1.1" xmlns="http://www.w3.org/2000/svg" width="32" height="32" viewBox="0 0 32 32">
<title>cube</title>
<path d="M29 8.7c0 0-0.1 0 0 0 0-0.1-0.1-0.2-0.1-0.2s0 0-0.1-0.1c0 0-0.1-0.1-0.1-0.1s-0.1 0-0.1-0.1c0 0-0.1-0.1-0.1-0.1l-12-7c-0.3-0.2-0.7-0.2-1 0l-12 7c0 0-0.1 0.1-0.1 0.1s-0.1 0-0.1 0.1c0 0-0.1 0.1-0.1 0.1s-0.1 0.1-0.1 0.1c0 0 0 0.1-0.1 0.2 0 0 0 0.1 0 0.1s0 0.1 0 0.2v14c0 0.4 0.2 0.7 0.5 0.9l12 7c0 0 0 0 0 0s0 0 0 0c0.1 0 0.1 0 0.2 0.1 0 0 0.1 0 0.1 0 0.1 0 0.2 0 0.3 0s0.2 0 0.3 0c0 0 0.1 0 0.1 0 0.1 0 0.1 0 0.2-0.1 0 0 0 0 0 0s0 0 0 0l12-7c0.3-0.2 0.5-0.5 0.5-0.9v-14c-0.2-0.1-0.2-0.2-0.2-0.3zM16 3.2l10 5.8-10 5.8-10-5.8 10-5.8zM5 10.7l10 5.8v11.7l-10-5.8v-11.7zM27 22.4l-10 5.8v-11.6l10-5.8v11.6z"></path>
</svg>
