<!-- Generated by IcoMoon.io -->
<svg version="1.1" xmlns="http://www.w3.org/2000/svg" width="32" height="32" viewBox="0 0 32 32">
<title>delivery</title>
<path d="M2 16h10v2h-10v-2z"></path>
<path d="M2 11h10v2h-10v-2z"></path>
<path d="M6 20c-2.2 0-4 1.8-4 4s1.8 4 4 4 4-1.8 4-4-1.8-4-4-4zM6 26c-1.1 0-2-0.9-2-2s0.9-2 2-2 2 0.9 2 2-0.9 2-2 2z"></path>
<path d="M29.9 16.6l-3-7c-0.1-0.4-0.5-0.6-0.9-0.6h-3v-2c0-0.6-0.4-1-1-1h-20v2h19v12.6c-0.9 0.5-1.6 1.4-1.9 2.4h-9.1v2h9.1c0.4 1.7 2 3 3.9 3s3.4-1.3 3.9-3h2.1c0.6 0 1-0.4 1-1v-7c0-0.1 0-0.3-0.1-0.4zM25.3 11l2.1 5h-4.4v-5h2.3zM23 26c-1.1 0-2-0.9-2-2s0.9-2 2-2 2 0.9 2 2-0.9 2-2 2zM26.9 23c-0.4-1.7-2-3-3.9-3v-2h5v5h-1.1z"></path>
</svg>
