<!-- Generated by IcoMoon.io -->
<svg version="1.1" xmlns="http://www.w3.org/2000/svg" width="32" height="32" viewBox="0 0 32 32">
<title>document--add</title>
<path d="M30 24h-4v-4h-2v4h-4v2h4v4h2v-4h4v-2z"></path>
<path d="M16 28h-8v-24h8v6c0.003 1.103 0.897 1.997 2 2h6v4h2v-6c0-0.007 0-0.016 0-0.025 0-0.268-0.116-0.508-0.3-0.675l-0.001-0.001-7-7c-0.167-0.185-0.407-0.3-0.675-0.3-0.009 0-0.018 0-0.026 0l0.001-0h-10c-1.103 0.003-1.997 0.897-2 2v24c0.003 1.103 0.897 1.997 2 2h8zM18 4.4l5.6 5.6h-5.6z"></path>
</svg>
