<!-- Generated by IcoMoon.io -->
<svg version="1.1" xmlns="http://www.w3.org/2000/svg" width="32" height="32" viewBox="0 0 32 32">
<title>document--video</title>
<path d="M30 19l-4 3.2v-2.2c-0.001-1.104-0.896-1.999-2-2h-8c-1.104 0.001-1.999 0.896-2 2v6c0.001 1.104 0.896 1.999 2 2h8c1.104-0.001 1.999-0.896 2-2v-2.2l4 3.2zM16 26v-6h8l0.002 6z"></path>
<path d="M12 28h-4v-24h8v6c0.003 1.103 0.897 1.997 2 2h6v3h2v-5c0-0.007 0-0.016 0-0.025 0-0.268-0.116-0.508-0.3-0.675l-0.001-0.001-7-7c-0.167-0.185-0.407-0.3-0.675-0.3-0.009 0-0.018 0-0.026 0l0.001-0h-10c-1.103 0.003-1.997 0.897-2 2v24c0.003 1.103 0.897 1.997 2 2h4zM18 4.4l5.6 5.6h-5.6z"></path>
</svg>
