<!-- Generated by IcoMoon.io -->
<svg version="1.1" xmlns="http://www.w3.org/2000/svg" width="32" height="32" viewBox="0 0 32 32">
<title>document--horizontal</title>
<path d="M28 6h-24c-1.104 0.001-1.999 0.896-2 2v16c0.001 1.104 0.896 1.999 2 2h24c1.104-0.001 1.999-0.896 2-2v-16c-0.001-1.104-0.896-1.999-2-2h-0zM20 24h-8v-2c0-0.552 0.448-1 1-1v0h6c0.552 0 1 0.448 1 1v0zM28 24h-6v-2c0-1.657-1.343-3-3-3v0h-6c-1.657 0-3 1.343-3 3v0 2h-6v-16h24z"></path>
<path d="M16 18c2.209 0 4-1.791 4-4s-1.791-4-4-4c-2.209 0-4 1.791-4 4v0c0 2.209 1.791 4 4 4v0zM16 12c1.105 0 2 0.895 2 2s-0.895 2-2 2c-1.105 0-2-0.895-2-2v0c0-1.105 0.895-2 2-2v0z"></path>
</svg>
