<!-- Generated by IcoMoon.io -->
<svg version="1.1" xmlns="http://www.w3.org/2000/svg" width="32" height="32" viewBox="0 0 32 32">
<title>document--download</title>
<path d="M30 25l-1.414-1.414-2.586 2.586v-8.172h-2v8.172l-2.586-2.586-1.414 1.414 5 5 5-5z"></path>
<path d="M18 28h-10v-24h8v6c0.003 1.103 0.897 1.997 2 2h6v3h2v-5c0-0.007 0-0.016 0-0.025 0-0.268-0.116-0.508-0.3-0.675l-0.001-0.001-7-7c-0.167-0.185-0.407-0.3-0.675-0.3-0.009 0-0.018 0-0.026 0l0.001-0h-10c-1.103 0.003-1.997 0.897-2 2v24c0.003 1.103 0.897 1.997 2 2h10zM18 4.4l5.6 5.6h-5.6z"></path>
</svg>
