<!-- Generated by IcoMoon.io -->
<svg version="1.1" xmlns="http://www.w3.org/2000/svg" width="32" height="32" viewBox="0 0 32 32">
<title>document--vertical</title>
<path d="M16 14c-2.209 0-4-1.791-4-4s1.791-4 4-4c2.209 0 4 1.791 4 4v0 0c-0.007 2.206-1.794 3.993-3.999 4h-0.001zM16 8c-1.105 0-2 0.895-2 2s0.895 2 2 2c1.105 0 2-0.895 2-2v0 0c-0.003-1.103-0.897-1.997-2-2h-0z"></path>
<path d="M24 2h-16c-1.104 0.001-1.999 0.896-2 2v24c0.001 1.104 0.896 1.999 2 2h16c1.104-0.001 1.999-0.896 2-2v-24c-0.001-1.104-0.896-1.999-2-2h-0zM12 24v-6c-0.001-0.017-0.002-0.037-0.002-0.057 0-0.522 0.423-0.945 0.945-0.945 0.020 0 0.040 0.001 0.060 0.002l-0.003-0h6c0.017-0.001 0.037-0.002 0.057-0.002 0.522 0 0.945 0.423 0.945 0.945 0 0.020-0.001 0.040-0.002 0.060l0-0.003v6h-2v4h-4v-4zM20 28v-2c1.103-0.003 1.997-0.897 2-2v-6c0-0.016 0-0.035 0-0.054 0-1.627-1.319-2.946-2.946-2.946-0.019 0-0.038 0-0.057 0.001l0.003-0h-6c-0.016-0-0.035-0.001-0.054-0.001-1.627 0-2.946 1.319-2.946 2.946 0 0.019 0 0.038 0.001 0.057l-0-0.003v6c0.003 1.103 0.897 1.997 2 2h0v2h-4v-24h16v24z"></path>
</svg>
