<!-- Generated by IcoMoon.io -->
<svg version="1.1" xmlns="http://www.w3.org/2000/svg" width="32" height="32" viewBox="0 0 32 32">
<title>document--security</title>
<path d="M23 30l-2.139-1.013c-1.702-0.825-2.856-2.537-2.861-4.519v-6.469h10v6.468c-0.005 1.983-1.159 3.695-2.831 4.507l-0.030 0.013zM20 20v4.468c0.003 1.189 0.696 2.216 1.699 2.703l0.018 0.008 1.283 0.607 1.283-0.607c1.021-0.495 1.713-1.521 1.717-2.71v-4.468z"></path>
<path d="M16 28h-10v-24h8v6c0.003 1.103 0.897 1.997 2 2h6v3h2v-5c0-0.007 0-0.016 0-0.025 0-0.268-0.116-0.508-0.3-0.675l-0.001-0.001-7-7c-0.167-0.185-0.407-0.3-0.675-0.3-0.009 0-0.018 0-0.026 0l0.001-0h-10c-1.103 0.003-1.997 0.897-2 2v24c0.003 1.103 0.897 1.997 2 2h10zM16 4.4l5.6 5.6h-5.6z"></path>
</svg>
