<!-- Generated by IcoMoon.io -->
<svg version="1.1" xmlns="http://www.w3.org/2000/svg" width="32" height="32" viewBox="0 0 32 32">
<title>document--unknown</title>
<path d="M10.5 28.5c0 0.828-0.672 1.5-1.5 1.5s-1.5-0.672-1.5-1.5c0-0.828 0.672-1.5 1.5-1.5s1.5 0.672 1.5 1.5z"></path>
<path d="M10 25h-2v-4h2c1.105 0 2-0.895 2-2s-0.895-2-2-2v0h-2c-1.104 0.001-1.999 0.896-2 2v0.5h-2v-0.5c0.003-2.208 1.792-3.997 4-4h2c2.209 0 4 1.791 4 4s-1.791 4-4 4v0z"></path>
<path d="M27.7 9.3l-7-7c-0.167-0.185-0.407-0.3-0.675-0.3-0.009 0-0.018 0-0.026 0l0.001-0h-10c-1.103 0.003-1.997 0.897-2 2v8h2v-8h8v6c0.003 1.103 0.897 1.997 2 2h6v16h-12v2h12c1.103-0.003 1.997-0.897 2-2v-18c0-0.007 0-0.016 0-0.025 0-0.268-0.116-0.508-0.3-0.675l-0.001-0.001zM20 10v-5.6l5.6 5.6z"></path>
</svg>
