<!-- Generated by IcoMoon.io -->
<svg version="1.1" xmlns="http://www.w3.org/2000/svg" width="32" height="32" viewBox="0 0 32 32">
<title>document--import</title>
<path d="M28 19h-13.17l2.58-2.59-1.41-1.41-5 5 5 5 1.41-1.41-2.58-2.59h13.17v-2z"></path>
<path d="M24 14v-4c0-0.002 0-0.004 0-0.006 0-0.275-0.111-0.524-0.29-0.704l-7-7c-0.181-0.179-0.43-0.29-0.704-0.29-0.002 0-0.004 0-0.006 0h-10c-1.105 0-2 0.895-2 2v0 24c0 1.105 0.895 2 2 2v0h16c1.105 0 2-0.895 2-2v0-2h-2v2h-16v-24h8v6c0 1.105 0.895 2 2 2v0h6v2zM16 10v-5.59l5.59 5.59z"></path>
</svg>
