<!-- Generated by IcoMoon.io -->
<svg version="1.1" xmlns="http://www.w3.org/2000/svg" width="32" height="32" viewBox="0 0 32 32">
<title>document--signed</title>
<path d="M19.414 30h-4.414v-4.414l5.034-5.034c-0.021-0.166-0.034-0.357-0.034-0.552v-0c0-0.001 0-0.002 0-0.003 0-2.761 2.239-5 5-5s5 2.239 5 5c0 2.761-2.239 5-5 5-0.195 0-0.387-0.011-0.575-0.033l0.023 0.002zM17 28h1.586l5.206-5.206 0.54 0.124c0.211 0.052 0.454 0.083 0.703 0.083 1.676 0 3.035-1.359 3.035-3.035s-1.359-3.035-3.035-3.035c-1.676 0-3.035 1.359-3.035 3.035 0 0.25 0.030 0.492 0.087 0.724l-0.004-0.021 0.124 0.539-5.206 5.206z"></path>
<path d="M26 20c0 0.552-0.448 1-1 1s-1-0.448-1-1c0-0.552 0.448-1 1-1s1 0.448 1 1z"></path>
<path d="M8 6h12v2h-12v-2z"></path>
<path d="M8 10h12v2h-12v-2z"></path>
<path d="M8 14h6v2h-6v-2z"></path>
<path d="M8 24h4v2h-4v-2z"></path>
<path d="M12 30h-6c-1.104-0.001-1.999-0.896-2-2v-24c0.001-1.104 0.896-1.999 2-2h16c1.104 0.001 1.999 0.896 2 2v9h-2v-9h-16v24h6z"></path>
</svg>
