<!-- Generated by IcoMoon.io -->
<svg version="1.1" xmlns="http://www.w3.org/2000/svg" width="32" height="32" viewBox="0 0 32 32">
<title>document--attachment</title>
<path d="M26 30h-15c-1.104-0.001-1.999-0.896-2-2v-6h2v6h15v-22h-9v-2h9c1.104 0.001 1.999 0.896 2 2v22c-0.001 1.104-0.896 1.999-2 2h-0z"></path>
<path d="M17 10h7v2h-7v-2z"></path>
<path d="M16 15h8v2h-8v-2z"></path>
<path d="M15 20h9v2h-9v-2z"></path>
<path d="M9 19c-2.76-0.003-4.997-2.24-5-5v-11h2v11c0 1.657 1.343 3 3 3s3-1.343 3-3v0-9c0-0.552-0.448-1-1-1s-1 0.448-1 1v0 10h-2v-10c0-1.657 1.343-3 3-3s3 1.343 3 3v0 9c-0.003 2.76-2.24 4.997-5 5h-0z"></path>
</svg>
