<!-- Generated by IcoMoon.io -->
<svg version="1.1" xmlns="http://www.w3.org/2000/svg" width="32" height="32" viewBox="0 0 32 32">
<title>document--unprotected</title>
<path d="M23.499 9.085l-6.792-6.792c-0.181-0.181-0.431-0.293-0.707-0.293h-10c-1.103 0.003-1.997 0.897-2 2v24c0.003 1.103 0.897 1.997 2 2h8v-2h-8v-24h8v6c0.001 1.104 0.896 1.999 2 2h6.292c0.943-0 1.707-0.765 1.707-1.707 0-0.472-0.191-0.899-0.5-1.207v0zM16 10v-5.586l5.585 5.586z"></path>
<path d="M28 21h-6v-3c0-1.105 0.895-2 2-2s2 0.895 2 2v0h2c0-2.209-1.791-4-4-4s-4 1.791-4 4v0 3c-1.104 0.001-1.999 0.896-2 2v5c0.001 1.104 0.896 1.999 2 2h8c1.104-0.001 1.999-0.896 2-2v-5c-0.001-1.104-0.896-1.999-2-2h-0zM20 28v-5h8v5z"></path>
</svg>
