<!-- Generated by IcoMoon.io -->
<svg version="1.1" xmlns="http://www.w3.org/2000/svg" width="32" height="32" viewBox="0 0 32 32">
<title>document--pdf</title>
<path d="M30 18v-2h-6v10h2v-4h3v-2h-3v-2h4z"></path>
<path d="M19 26h-4v-10h4c1.656 0.002 2.998 1.344 3 3v4c-0.002 1.656-1.344 2.998-3 3h-0zM17 24h2c0.552-0.001 0.999-0.448 1-1v-4c-0.001-0.552-0.448-0.999-1-1h-2z"></path>
<path d="M11 16h-5v10h2v-3h3c1.104-0.002 1.998-0.896 2-2v-3c-0.001-1.104-0.896-1.999-2-2h-0zM8 21v-3h3l0.001 3z"></path>
<path d="M22 14v-4c0-0.007 0-0.016 0-0.025 0-0.268-0.116-0.508-0.3-0.675l-0.001-0.001-7-7c-0.167-0.185-0.408-0.3-0.675-0.3-0.009 0-0.018 0-0.026 0l0.001-0h-10c-1.103 0.003-1.997 0.897-2 2v24c0 1.105 0.895 2 2 2v0h16v-2h-16v-24h8v6c0.003 1.103 0.897 1.997 2 2h6v2zM14 10v-5.6l5.6 5.6z"></path>
</svg>
