<!-- Generated by IcoMoon.io -->
<svg version="1.1" xmlns="http://www.w3.org/2000/svg" width="32" height="32" viewBox="0 0 32 32">
<title>document--view</title>
<path d="M24 24c0 1.105-0.895 2-2 2s-2-0.895-2-2c0-1.105 0.895-2 2-2s2 0.895 2 2z"></path>
<path d="M29.777 23.479c-1.263-3.156-4.249-5.367-7.763-5.478l-0.014-0c-3.528 0.112-6.513 2.323-7.756 5.42l-0.021 0.058-0.223 0.521 0.223 0.521c1.263 3.156 4.249 5.367 7.763 5.478l0.014 0c3.528-0.112 6.513-2.323 7.756-5.42l0.021-0.058 0.223-0.521zM22 28c-2.209 0-4-1.791-4-4s1.791-4 4-4c2.209 0 4 1.791 4 4v0c-0.003 2.208-1.792 3.997-4 4h-0z"></path>
<path d="M12 28h-4v-24h8v6c0.003 1.103 0.897 1.997 2 2h6v4h2v-6c0-0.007 0-0.016 0-0.025 0-0.268-0.116-0.508-0.3-0.675l-0.001-0.001-7-7c-0.167-0.185-0.407-0.3-0.675-0.3-0.009 0-0.018 0-0.026 0l0.001-0h-10c-1.103 0.003-1.997 0.897-2 2v24c0.003 1.103 0.897 1.997 2 2h4zM18 4.4l5.6 5.6h-5.6z"></path>
</svg>
