<!-- Generated by IcoMoon.io -->
<svg version="1.1" xmlns="http://www.w3.org/2000/svg" width="32" height="32" viewBox="0 0 32 32">
<title>document--word-processor</title>
<path d="M28.3 20l-0.909 8.611-1.391-8.611h-2l-1.391 8.611-0.909-8.611h-1.7l1.36 10h2.28l1.36-8.374 1.36 8.374h2.28l1.36-10h-1.7z"></path>
<path d="M25.707 9.293l-7-7c-0.181-0.181-0.431-0.293-0.707-0.293h-10c-1.104 0.001-1.999 0.896-2 2v24c0.001 1.104 0.896 1.999 2 2h8v-2h-8v-24h8v6c0.001 1.104 0.896 1.999 2 2h6v4h2v-6c-0-0.276-0.112-0.526-0.293-0.707v0zM18 4.414l5.586 5.586h-5.586z"></path>
</svg>
