<!-- Generated by IcoMoon.io -->
<svg version="1.1" xmlns="http://www.w3.org/2000/svg" width="32" height="32" viewBox="0 0 32 32">
<title>drop-photo--filled</title>
<path d="M21 22c0 1.105-0.895 2-2 2s-2-0.895-2-2c0-1.105 0.895-2 2-2s2 0.895 2 2z"></path>
<path d="M27 16h-3.279l-0.544-1.633c-0.273-0.801-1.018-1.367-1.896-1.367-0.001 0-0.001 0-0.002 0h-4.559c-0 0-0.001 0-0.001 0-0.878 0-1.624 0.566-1.892 1.354l-0.004 0.014-0.544 1.632h-3.279c-1.104 0.001-1.999 0.896-2 2v9c0.001 1.104 0.896 1.999 2 2h16c1.104-0.001 1.999-0.896 2-2v-9c-0.001-1.104-0.896-1.999-2-2h-0zM19 26c-2.209 0-4-1.791-4-4s1.791-4 4-4c2.209 0 4 1.791 4 4v0c-0.003 2.208-1.792 3.997-4 4h-0z"></path>
<path d="M27 11h2v2h-2v-2z"></path>
<path d="M27 7h2v2h-2v-2z"></path>
<path d="M27 3h2v2h-2v-2z"></path>
<path d="M23 3h2v2h-2v-2z"></path>
<path d="M19 3h2v2h-2v-2z"></path>
<path d="M15 3h2v2h-2v-2z"></path>
<path d="M11 3h2v2h-2v-2z"></path>
<path d="M7 3h2v2h-2v-2z"></path>
<path d="M3 3h2v2h-2v-2z"></path>
<path d="M3 7h2v2h-2v-2z"></path>
<path d="M3 11h2v2h-2v-2z"></path>
<path d="M3 15h2v2h-2v-2z"></path>
<path d="M3 19h2v2h-2v-2z"></path>
<path d="M3 23h2v2h-2v-2z"></path>
<path d="M3 27h2v2h-2v-2z"></path>
</svg>
