<!-- Generated by IcoMoon.io -->
<svg version="1.1" xmlns="http://www.w3.org/2000/svg" width="32" height="32" viewBox="0 0 32 32">
<title>drop-photo</title>
<path d="M19 26c-2.209 0-4-1.791-4-4s1.791-4 4-4c2.209 0 4 1.791 4 4v0c-0.003 2.208-1.792 3.997-4 4h-0zM19 20c-1.105 0-2 0.895-2 2s0.895 2 2 2c1.105 0 2-0.895 2-2v0c-0.001-1.104-0.896-1.999-2-2h-0z"></path>
<path d="M27 29h-16c-1.105 0-2-0.895-2-2v0-9c0-1.105 0.895-2 2-2v0h3.279l0.544-1.632c0.273-0.801 1.019-1.368 1.897-1.368 0 0 0 0 0 0h4.558c0 0 0 0 0 0 0.878 0 1.624 0.566 1.893 1.354l0.004 0.014 0.544 1.632h3.279c1.105 0 2 0.895 2 2v0 9c0 1.105-0.895 2-2 2v0zM11 27h16v-9h-4.721l-1-3h-4.559l-1 3h-4.721z"></path>
<path d="M27 11h2v2h-2v-2z"></path>
<path d="M27 7h2v2h-2v-2z"></path>
<path d="M27 3h2v2h-2v-2z"></path>
<path d="M23 3h2v2h-2v-2z"></path>
<path d="M19 3h2v2h-2v-2z"></path>
<path d="M15 3h2v2h-2v-2z"></path>
<path d="M11 3h2v2h-2v-2z"></path>
<path d="M7 3h2v2h-2v-2z"></path>
<path d="M3 3h2v2h-2v-2z"></path>
<path d="M3 7h2v2h-2v-2z"></path>
<path d="M3 11h2v2h-2v-2z"></path>
<path d="M3 15h2v2h-2v-2z"></path>
<path d="M3 19h2v2h-2v-2z"></path>
<path d="M3 23h2v2h-2v-2z"></path>
<path d="M3 27h2v2h-2v-2z"></path>
</svg>
