<!-- Generated by IcoMoon.io -->
<svg version="1.1" xmlns="http://www.w3.org/2000/svg" width="32" height="32" viewBox="0 0 32 32">
<title>exclamation--circle</title>
<path d="M16 31c-8.3 0-15-6.7-15-15s6.7-15 15-15c8.3 0 15 6.7 15 15s-6.7 15-15 15zM16 3c-7.2 0-13 5.8-13 13s5.8 13 13 13c7.2 0 13-5.8 13-13s-5.8-13-13-13z"></path>
<path d="M16 23c-0.3 0-0.5 0.2-0.5 0.5s0.2 0.5 0.5 0.5c0.3 0 0.5-0.2 0.5-0.5s-0.2-0.5-0.5-0.5z"></path>
<path d="M16 25c-0.9 0-1.5-0.6-1.5-1.5s0.6-1.5 1.5-1.5 1.5 0.6 1.5 1.5-0.6 1.5-1.5 1.5zM16 23c-0.3 0-0.5 0.2-0.5 0.5s0.2 0.5 0.5 0.5 0.5-0.2 0.5-0.5-0.2-0.5-0.5-0.5z"></path>
<path d="M15 8h2v11h-2v-11z"></path>
</svg>
