<?xml version="1.0" encoding="utf-8"?>
<!-- Generator: Adobe Illustrator 25.2.0, SVG Export Plug-In . SVG Version: 6.00 Build 0)  -->
<svg version="1.1" id="Ebene_1" xmlns="http://www.w3.org/2000/svg" xmlns:xlink="http://www.w3.org/1999/xlink" x="0px" y="0px"
	 viewBox="0 0 32 32" style="enable-background:new 0 0 32 32;" xml:space="preserve">
<style type="text/css">
	.st0{fill:none;}
	.st1{fill:#212121;}
</style>
<rect id="_Transparent_Rectangle_" y="0" class="st0" width="32" height="32"/>
<g>
	<path class="st1" d="M29.9,27.5l-13-25c-0.3-0.7-1.4-0.7-1.8,0l-13,25c-0.2,0.3-0.1,0.7,0,1C2.3,28.8,2.7,29,3,29h26
		c0.3,0,0.7-0.2,0.9-0.5C30,28.2,30,27.8,29.9,27.5z M15,10h2v9h-2V10z M16,25c-0.9,0-1.5-0.6-1.5-1.5S15.1,22,16,22
		s1.5,0.6,1.5,1.5S16.9,25,16,25z"/>
</g>
</svg>
