<!-- Generated by IcoMoon.io -->
<svg version="1.1" xmlns="http://www.w3.org/2000/svg" width="32" height="32" viewBox="0 0 32 32">
<title>extend--square</title>
<path d="M22 17.5h-2v4.9l2.8 2.8 1.4-1.4-2.2-2.2z"></path>
<path d="M10 26h-4v-20h20v6c0 0.6 0.4 1 1 1s1-0.4 1-1v-7c0-0.6-0.4-1-1-1h-22c-0.6 0-1 0.4-1 1v22c0 0.6 0.4 1 1 1h5c0.6 0 1-0.4 1-1s-0.4-1-1-1z"></path>
<path d="M21 14c-4.4 0-8 3.6-8 8s3.6 8 8 8 8-3.6 8-8-3.6-8-8-8zM21 28c-3.3 0-6-2.7-6-6s2.7-6 6-6 6 2.7 6 6-2.7 6-6 6z"></path>
</svg>
