<?xml version="1.0" encoding="utf-8"?>
<!-- Generator: Adobe Illustrator 25.2.0, SVG Export Plug-In . SVG Version: 6.00 Build 0)  -->
<svg version="1.1" id="Ebene_1" xmlns="http://www.w3.org/2000/svg" xmlns:xlink="http://www.w3.org/1999/xlink" x="0px" y="0px"
	 viewBox="0 0 32 32" style="enable-background:new 0 0 32 32;" xml:space="preserve">
<style type="text/css">
	.st0{fill:none;}
	.st1{fill:#212121;}
</style>
<rect id="_Transparent_Rectangle_" y="0" class="st0" width="32" height="32"/>
<g>
	<path class="st1" d="M16,11.5c-2.5,0-4.5,2-4.5,4.5c0,2.5,2,4.5,4.5,4.5s4.5-2,4.5-4.5C20.5,13.5,18.5,11.5,16,11.5z"/>
	<path class="st1" d="M30.6,14.6c-1.9-2.7-7.2-9.1-14.6-9.1c-7.5,0-12.7,6.4-14.7,9.2c-0.5,0.8-0.5,1.8,0,2.6c0,0,0,0,0,0.1
		c1.9,2.7,7.2,9.1,14.6,9.1c7.7,0,13.1-7,14.7-9.2C31.1,16.5,31.1,15.5,30.6,14.6z M16,22.5c-3.6,0-6.5-2.9-6.5-6.5
		c0-3.6,2.9-6.5,6.5-6.5s6.5,2.9,6.5,6.5C22.5,19.6,19.6,22.5,16,22.5z"/>
</g>
</svg>
