<!-- Generated by IcoMoon.io -->
<svg version="1.1" xmlns="http://www.w3.org/2000/svg" width="32" height="32" viewBox="0 0 32 32">
<title>eye--solid</title>
<path d="M16 11.5c-2.5 0-4.5 2-4.5 4.5s2 4.5 4.5 4.5 4.5-2 4.5-4.5c0-2.5-2-4.5-4.5-4.5z"></path>
<path d="M30.6 14.6c-1.9-2.7-7.2-9.1-14.6-9.1-7.5 0-12.7 6.4-14.7 9.2-0.5 0.8-0.5 1.8 0 2.6 0 0 0 0 0 0.1 1.9 2.7 7.2 9.1 14.6 9.1 7.7 0 13.1-7 14.7-9.2 0.5-0.8 0.5-1.8 0-2.7zM16 22.5c-3.6 0-6.5-2.9-6.5-6.5s2.9-6.5 6.5-6.5 6.5 2.9 6.5 6.5c0 3.6-2.9 6.5-6.5 6.5z"></path>
</svg>
