<!-- Generated by IcoMoon.io -->
<svg version="1.1" xmlns="http://www.w3.org/2000/svg" width="32" height="32" viewBox="0 0 32 32">
<title>eye</title>
<path d="M16 26.5c-7.5 0-12.7-6.4-14.6-9.1 0 0 0 0 0-0.1-0.5-0.8-0.5-1.8 0-2.6 1.9-2.8 7.1-9.2 14.6-9.2s12.7 6.4 14.6 9.1c0.5 0.9 0.5 1.9 0 2.7-1.5 2.2-6.9 9.2-14.6 9.2zM3 16.3c1.4 2 6.3 8.2 13 8.2 6.9 0 12-6.9 13-8.3 0.1-0.1 0.1-0.3 0-0.5-1.3-1.9-6.2-8.2-12.9-8.2s-11.7 6.3-13.1 8.3c0 0.1-0.1 0.3 0 0.5z"></path>
<path d="M16 22.5c-3.6 0-6.5-2.9-6.5-6.5s2.9-6.5 6.5-6.5 6.5 2.9 6.5 6.5-2.9 6.5-6.5 6.5zM16 11.5c-2.5 0-4.5 2-4.5 4.5s2 4.5 4.5 4.5 4.5-2 4.5-4.5-2-4.5-4.5-4.5z"></path>
</svg>
