<!-- Generated by IcoMoon.io -->
<svg version="1.1" xmlns="http://www.w3.org/2000/svg" width="32" height="32" viewBox="0 0 32 32">
<title>file--extend</title>
<path d="M22.8 25.2l-2.8-2.8v-4.9h2v4.1l2.2 2.2z"></path>
<path d="M21 30c-4.4 0-8-3.6-8-8s3.6-8 8-8 8 3.6 8 8-3.6 8-8 8zM21 16c-3.3 0-6 2.7-6 6s2.7 6 6 6 6-2.7 6-6-2.7-6-6-6z"></path>
<path d="M10 30h-5c-0.6 0-1-0.4-1-1v-26c0-0.6 0.4-1 1-1h15c0.3 0 0.5 0.1 0.7 0.3 0 0 0 0 0 0s0 0 0 0l7 7c0.3 0.3 0.4 0.7 0.2 1.1-0.1 0.4-0.5 0.6-0.9 0.6h-7c-0.6 0-1-0.4-1-1v-6h-13v24h4c0.6 0 1 0.4 1 1s-0.4 1-1 1zM21 9h3.6l-3.6-3.6v3.6z"></path>
</svg>
