<!-- Generated by IcoMoon.io -->
<svg version="1.1" xmlns="http://www.w3.org/2000/svg" width="32" height="32" viewBox="0 0 32 32">
<title>folder--open</title>
<path d="M28 8h-7.172l-3.414-3.414c-0.362-0.362-0.862-0.586-1.414-0.586h-12c-1.105 0-2 0.895-2 2v0 20c0 1.105 0.895 2 2 2v0h24c1.105 0 2-0.895 2-2v0-16c0-1.105-0.895-2-2-2v0zM8 26v-12h8v6.17l-2.59-2.58-1.41 1.41 5 5 5-5-1.41-1.41-2.59 2.58v-6.17c-0.001-1.104-0.896-1.999-2-2h-8c-1.104 0.001-1.999 0.896-2 2v12h-2v-20h12l4 4h8v2h-6v2h6v12z"></path>
</svg>
