<!-- Generated by IcoMoon.io -->
<svg version="1.1" xmlns="http://www.w3.org/2000/svg" width="32" height="32" viewBox="0 0 32 32">
<title>folders</title>
<path d="M26 28h-20c-1.104-0.001-1.999-0.896-2-2v-15c0.001-1.104 0.896-1.999 2-2h5.667c0.453 0.001 0.87 0.151 1.206 0.404l-0.005-0.004 3.466 2.6h9.666c1.104 0.001 1.999 0.896 2 2v12c-0.001 1.104-0.896 1.999-2 2h-0zM11.666 11h-5.668l0.002 15h20v-12h-10.334z"></path>
<path d="M28 9h-10.334l-4-3h-7.667v-2h7.667c0.453 0.001 0.87 0.151 1.206 0.404l-0.005-0.004 3.466 2.6h9.666z"></path>
</svg>
