<!-- Generated by IcoMoon.io -->
<svg version="1.1" xmlns="http://www.w3.org/2000/svg" width="32" height="32" viewBox="0 0 32 32">
<title>folder--shared</title>
<path d="M28 8h-12l-3.41-3.41c-0.362-0.364-0.864-0.59-1.418-0.59-0.001 0-0.001 0-0.002 0h-7.17c-1.105 0-2 0.895-2 2v0 20c0 1.105 0.895 2 2 2v0h24c1.105 0 2-0.895 2-2v0-16c0-1.105-0.895-2-2-2v0zM22 26h-8v-1c0-0.552 0.448-1 1-1v0h6c0.552 0 1 0.448 1 1v0zM28 26h-4v-1c0-1.657-1.343-3-3-3v0h-6c-1.657 0-3 1.343-3 3v0 1h-8v-20h7.17l3.42 3.41 0.58 0.59h12.83z"></path>
<path d="M14 17c0 2.209 1.791 4 4 4s4-1.791 4-4c0-2.209-1.791-4-4-4v0c-2.209 0-4 1.791-4 4v0zM18 15c1.105 0 2 0.895 2 2s-0.895 2-2 2c-1.105 0-2-0.895-2-2v0c0-1.105 0.895-2 2-2v0z"></path>
</svg>
