<!-- Generated by IcoMoon.io -->
<svg version="1.1" xmlns="http://www.w3.org/2000/svg" width="32" height="32" viewBox="0 0 32 32">
<title>generate-pdf</title>
<path d="M24 24v4h-16v-4h-2v4c0 1.105 0.895 2 2 2v0h16c1.105 0 2-0.895 2-2v0 0-4z"></path>
<path d="M21 21l-1.414-1.414-2.586 2.586v-8.172h-2v8.172l-2.586-2.586-1.414 1.414 5 5 5-5z"></path>
<path d="M28 4v-2h-6v10h2v-4h3v-2h-3v-2h4z"></path>
<path d="M17 12h-4v-10h4c1.656 0.002 2.998 1.344 3 3v4c-0.002 1.656-1.344 2.998-3 3h-0zM15 10h2c0.552-0.001 0.999-0.448 1-1v-4c-0.001-0.552-0.448-0.999-1-1h-2z"></path>
<path d="M9 2h-5v10h2v-3h3c1.104-0.002 1.998-0.896 2-2v-3c-0.001-1.104-0.896-1.999-2-2h-0zM6 7v-3h3l0.001 3z"></path>
</svg>
