<!-- Generated by IcoMoon.io -->
<svg version="1.1" xmlns="http://www.w3.org/2000/svg" width="32" height="32" viewBox="0 0 32 32">
<title>globe</title>
<path d="M16 2c-7.7 0-14 6.3-14 14s6.3 14 14 14 14-6.3 14-14-6.3-14-14-14zM27.9 15h-6c-0.1-3.7-1.1-7.3-2.8-10.6 4.8 1.4 8.4 5.5 8.8 10.6zM16.7 4c2 3.3 3.1 7 3.3 11h-7.7c0.2-3.9 1.3-7.7 3.3-11 0.1 0 0.3 0 0.4 0 0.2 0 0.4 0 0.7 0zM13 4.4c-1.7 3.3-2.7 6.9-2.8 10.6h-6.1c0.4-5.2 4.1-9.4 8.9-10.6zM4.1 17h6.2c0.1 3.7 1.1 7.4 2.8 10.6-4.9-1.2-8.6-5.4-9-10.6zM15.6 28c-2-3.3-3.2-7-3.3-11h7.7c-0.2 3.9-1.3 7.7-3.3 11-0.2 0-0.4 0-0.7 0-0.2 0-0.3 0-0.4 0zM19.2 27.6c1.7-3.2 2.6-6.8 2.8-10.6h6c-0.5 5.1-4.1 9.2-8.8 10.6z"></path>
</svg>
