<!-- Generated by IcoMoon.io -->
<svg version="1.1" xmlns="http://www.w3.org/2000/svg" width="32" height="32" viewBox="0 0 32 32">
<title>image--copy</title>
<path d="M4 22h-2v-18c0.001-1.104 0.896-1.999 2-2h18v2h-18z"></path>
<path d="M21 17c1.657 0 3-1.343 3-3s-1.343-3-3-3c-1.657 0-3 1.343-3 3v0c0.002 1.656 1.344 2.998 3 3h0zM21 13c0.552 0 1 0.448 1 1s-0.448 1-1 1c-0.552 0-1-0.448-1-1v0c0-0.552 0.448-0.999 1-1h0z"></path>
<path d="M28 7h-19c-1.104 0.001-1.999 0.896-2 2v19c0.001 1.104 0.896 1.999 2 2h19c1.104-0.001 1.999-0.896 2-2v-19c-0.001-1.104-0.896-1.999-2-2h-0zM28 28h-19v-6l4-3.997 5.586 5.586c0.362 0.362 0.862 0.586 1.414 0.586s1.052-0.224 1.414-0.586l1.586-1.585 5 4.997zM28 24.172l-3.586-3.586c-0.362-0.362-0.862-0.586-1.414-0.586s-1.052 0.224-1.414 0.586l-1.586 1.586-5.586-5.586c-0.362-0.362-0.862-0.586-1.414-0.586s-1.052 0.224-1.414 0.586l-2.586 2.586v-10.172h19z"></path>
</svg>
