<!-- Generated by IcoMoon.io -->
<svg version="1.1" xmlns="http://www.w3.org/2000/svg" width="32" height="32" viewBox="0 0 32 32">
<title>image</title>
<path d="M19 14c1.657 0 3-1.343 3-3s-1.343-3-3-3c-1.657 0-3 1.343-3 3v0c0 1.657 1.343 3 3 3v0zM19 10c0.552 0 1 0.448 1 1s-0.448 1-1 1c-0.552 0-1-0.448-1-1v0c0-0.552 0.448-1 1-1v0z"></path>
<path d="M26 4h-20c-1.105 0-2 0.895-2 2v0 20c0 1.105 0.895 2 2 2v0h20c1.105 0 2-0.895 2-2v0-20c0-1.105-0.895-2-2-2v0zM26 26h-20v-6l5-5 5.59 5.59c0.361 0.359 0.86 0.582 1.41 0.582s1.049-0.222 1.41-0.582l1.59-1.59 5 5zM26 21.17l-3.59-3.59c-0.361-0.359-0.86-0.582-1.41-0.582s-1.049 0.222-1.41 0.582l-1.59 1.59-5.59-5.59c-0.361-0.359-0.86-0.582-1.41-0.582s-1.049 0.222-1.41 0.582l-3.59 3.59v-11.17h20z"></path>
</svg>
