<!-- Generated by IcoMoon.io -->
<svg version="1.1" xmlns="http://www.w3.org/2000/svg" width="32" height="32" viewBox="0 0 32 32">
<title>image--reference</title>
<path d="M4 20v2h4.586l-6.586 6.586 1.414 1.414 6.586-6.586v4.586h2v-8h-8z"></path>
<path d="M19 14c1.657 0 3-1.343 3-3s-1.343-3-3-3c-1.657 0-3 1.343-3 3v0c0 1.657 1.343 3 3 3v0zM19 10c0.552 0 1 0.448 1 1s-0.448 1-1 1c-0.552 0-1-0.448-1-1v0c0-0.552 0.448-1 1-1v0z"></path>
<path d="M26 4h-20c-1.105 0-2 0.895-2 2v0 10h2v-10h20v15.17l-3.59-3.59c-0.361-0.359-0.86-0.582-1.41-0.582s-1.049 0.222-1.41 0.582l-1.59 1.59-6.169-6.17-1.415 1.415 6.174 6.175c0.361 0.359 0.86 0.582 1.41 0.582s1.049-0.222 1.41-0.582l1.59-1.59 5 5v2h-10v2h10c1.105 0 2-0.895 2-2v0-20c0-1.105-0.895-2-2-2v0z"></path>
</svg>
