<!-- Generated by IcoMoon.io -->
<svg version="1.1" xmlns="http://www.w3.org/2000/svg" width="32" height="32" viewBox="0 0 32 32">
<title>label</title>
<path d="M23 13h-5v2h5v2h-4c-1.105 0-2 0.895-2 2v0 2c0 1.105 0.895 2 2 2v0h6v-8c-0.001-1.104-0.896-1.999-2-2h-0zM23 21h-4v-2h4z"></path>
<path d="M13 9h-4c-1.104 0.001-1.999 0.896-2 2v12h2v-5h4v5h2v-12c-0.001-1.104-0.896-1.999-2-2h-0zM9 16v-5h4v5z"></path>
<path d="M28 28h-24c-1.104-0.001-1.999-0.896-2-2v-20c0.001-1.104 0.896-1.999 2-2h24c1.104 0.001 1.999 0.896 2 2v20c-0.001 1.104-0.896 1.999-2 2h-0zM4 6v20h24v-20z"></path>
</svg>
