<!-- Generated by IcoMoon.io -->
<svg version="1.1" xmlns="http://www.w3.org/2000/svg" width="32" height="32" viewBox="0 0 32 32">
<title>license--global</title>
<path d="M22 14c-4.418 0-8 3.582-8 8s3.582 8 8 8c4.418 0 8-3.582 8-8v0c-0.005-4.416-3.584-7.995-8-8h-0zM27.91 21h-1.954c-0.142-1.602-0.576-3.072-1.25-4.401l0.032 0.069c1.654 0.865 2.84 2.433 3.167 4.296l0.005 0.036zM20.055 21c0.198-1.896 0.898-3.599 1.963-5.011l-0.018 0.025c1.047 1.386 1.747 3.089 1.941 4.942l0.004 0.043zM23.945 23c-0.198 1.897-0.898 3.599-1.964 5.011l0.018-0.025c-1.047-1.386-1.747-3.089-1.941-4.942l-0.004-0.043zM19.262 16.668c-0.643 1.26-1.077 2.73-1.216 4.286l-0.003 0.046h-1.953c0.332-1.899 1.518-3.467 3.139-4.316l0.033-0.016zM16.090 23h1.953c0.142 1.602 0.576 3.072 1.25 4.401l-0.032-0.069c-1.654-0.865-2.839-2.433-3.166-4.296l-0.005-0.036zM24.738 27.332c0.642-1.26 1.077-2.73 1.215-4.286l0.003-0.046h1.953c-0.332 1.899-1.518 3.467-3.138 4.316l-0.033 0.016z"></path>
<path d="M6 14h6v2h-6v-2z"></path>
<path d="M6 6h12v2h-12v-2z"></path>
<path d="M6 10h12v2h-12v-2z"></path>
<path d="M6 24h6v2h-6v-2z"></path>
<path d="M12 30h-8c-1.104-0.001-1.999-0.896-2-2v-24c0.001-1.104 0.896-1.999 2-2h16c1.104 0.001 1.999 0.896 2 2v8h-2v-8h-16v24h8z"></path>
</svg>
