<!-- Generated by IcoMoon.io -->
<svg version="1.1" xmlns="http://www.w3.org/2000/svg" width="32" height="32" viewBox="0 0 32 32">
<title>license--maintenance</title>
<path d="M8 14h6v2h-6v-2z"></path>
<path d="M8 6h12v2h-12v-2z"></path>
<path d="M8 10h12v2h-12v-2z"></path>
<path d="M8 24h6v2h-6v-2z"></path>
<path d="M30 24v-2h-2.101c-0.14-0.665-0.394-1.252-0.743-1.771l0.011 0.018 1.49-1.49-1.414-1.414-1.49 1.49c-0.501-0.338-1.088-0.592-1.721-0.726l-0.032-0.006v-2.101h-2v2.101c-0.665 0.14-1.252 0.394-1.771 0.743l0.018-0.011-1.49-1.49-1.414 1.414 1.49 1.49c-0.338 0.501-0.592 1.088-0.726 1.721l-0.006 0.032h-2.101v2h2.101c0.14 0.665 0.394 1.252 0.743 1.771l-0.011-0.018-1.49 1.49 1.414 1.414 1.49-1.49c0.501 0.338 1.088 0.592 1.721 0.726l0.032 0.006v2.101h2v-2.101c0.665-0.14 1.252-0.394 1.771-0.743l-0.018 0.011 1.49 1.49 1.414-1.414-1.49-1.49c0.338-0.501 0.592-1.088 0.726-1.721l0.006-0.032zM23 26c-1.657 0-3-1.343-3-3s1.343-3 3-3c1.657 0 3 1.343 3 3v0c-0.002 1.656-1.344 2.998-3 3h-0z"></path>
<path d="M14 30h-8c-1.104-0.001-1.999-0.896-2-2v-24c0.001-1.104 0.896-1.999 2-2h16c1.104 0.001 1.999 0.896 2 2v10h-2v-10h-16v24h8z"></path>
</svg>
