<!-- Generated by IcoMoon.io -->
<svg version="1.1" xmlns="http://www.w3.org/2000/svg" width="32" height="32" viewBox="0 0 32 32">
<title>license--maintenance-draft</title>
<path d="M29.707 19.293l-3-3c-0.181-0.181-0.431-0.293-0.707-0.293s-0.526 0.112-0.707 0.293v0l-9.293 9.293v4.414h4.414l9.293-9.293c0.181-0.181 0.293-0.431 0.293-0.707s-0.112-0.526-0.293-0.707v0zM19.586 28h-1.586v-1.586l5-5 1.586 1.586zM26 21.586l-1.586-1.586 1.586-1.586 1.586 1.586z"></path>
<path d="M20 13v-2h-2.142c-0.102-0.387-0.248-0.726-0.435-1.037l0.010 0.018 1.517-1.517-1.414-1.414-1.517 1.517c-0.293-0.177-0.632-0.323-0.991-0.419l-0.028-0.006v-2.142h-2v2.142c-0.387 0.102-0.726 0.248-1.037 0.435l0.018-0.010-1.517-1.517-1.414 1.414 1.517 1.517c-0.177 0.293-0.323 0.632-0.419 0.991l-0.006 0.028h-2.142v2h2.142c0.102 0.387 0.248 0.726 0.435 1.037l-0.010-0.018-1.517 1.517 1.414 1.414 1.517-1.517c0.293 0.177 0.632 0.322 0.991 0.418l0.028 0.006v2.142h2v-2.142c0.387-0.102 0.726-0.248 1.037-0.435l-0.018 0.010 1.517 1.517 1.414-1.414-1.517-1.517c0.177-0.293 0.323-0.632 0.419-0.991l0.006-0.028zM14 14c-1.105 0-2-0.895-2-2s0.895-2 2-2c1.105 0 2 0.895 2 2v0c-0.001 1.104-0.896 1.999-2 2h-0z"></path>
<path d="M12 30h-6c-1.104-0.001-1.999-0.896-2-2v-24c0.001-1.104 0.896-1.999 2-2h16c1.104 0.001 1.999 0.896 2 2v10h-2v-10h-16v24h6z"></path>
</svg>
