<!-- Generated by IcoMoon.io -->
<svg version="1.1" xmlns="http://www.w3.org/2000/svg" width="32" height="32" viewBox="0 0 32 32">
<title>license--third-party-draft</title>
<path d="M29.707 19.293l-3-3c-0.181-0.181-0.431-0.293-0.707-0.293s-0.526 0.112-0.707 0.293v0l-9.293 9.293v4.414h4.414l9.293-9.293c0.181-0.181 0.293-0.431 0.293-0.707s-0.112-0.526-0.293-0.707v0zM19.586 28h-1.586v-1.586l5-5 1.586 1.586zM26 21.586l-1.586-1.586 1.586-1.586 1.586 1.586z"></path>
<path d="M17 15h-6c-1.657 0-3 1.343-3 3v0 1h2v-1c0-0.552 0.448-1 1-1v0h6c0.552 0 1 0.448 1 1v0 1h2v-1c0-1.657-1.343-3-3-3v0z"></path>
<path d="M14 14c2.209 0 4-1.791 4-4s-1.791-4-4-4c-2.209 0-4 1.791-4 4v0c0 2.209 1.791 4 4 4v0zM14 8c1.105 0 2 0.895 2 2s-0.895 2-2 2c-1.105 0-2-0.895-2-2v0c0-1.105 0.895-2 2-2v0z"></path>
<path d="M12 30h-6c-1.104-0.001-1.999-0.896-2-2v-24c0.001-1.104 0.896-1.999 2-2h16c1.104 0.001 1.999 0.896 2 2v10h-2v-10h-16v24h6z"></path>
</svg>
