<!-- Generated by IcoMoon.io -->
<svg version="1.1" xmlns="http://www.w3.org/2000/svg" width="32" height="32" viewBox="0 0 32 32">
<title>license--third-party</title>
<path d="M8 14h6v2h-6v-2z"></path>
<path d="M8 6h12v2h-12v-2z"></path>
<path d="M8 10h12v2h-12v-2z"></path>
<path d="M8 24h6v2h-6v-2z"></path>
<path d="M27 25h-6c-1.657 0-3 1.343-3 3v0 2h2v-2c0-0.552 0.448-1 1-1v0h6c0.552 0 1 0.448 1 1v0 2h2v-2c0-1.657-1.343-3-3-3v0z"></path>
<path d="M24 24c2.209 0 4-1.791 4-4s-1.791-4-4-4c-2.209 0-4 1.791-4 4v0c0 2.209 1.791 4 4 4v0zM24 18c1.105 0 2 0.895 2 2s-0.895 2-2 2c-1.105 0-2-0.895-2-2v0c0-1.105 0.895-2 2-2v0z"></path>
<path d="M14 30h-8c-1.104-0.001-1.999-0.896-2-2v-24c0.001-1.104 0.896-1.999 2-2h16c1.104 0.001 1.999 0.896 2 2v10h-2v-10h-16v24h8z"></path>
</svg>
