<!-- Generated by IcoMoon.io -->
<svg version="1.1" xmlns="http://www.w3.org/2000/svg" width="32" height="32" viewBox="0 0 32 32">
<title>license--draft</title>
<path d="M8 6h12v2h-12v-2z"></path>
<path d="M8 10h12v2h-12v-2z"></path>
<path d="M8 14h6v2h-6v-2z"></path>
<path d="M8 24h4v2h-4v-2z"></path>
<path d="M29.707 19.293l-3-3c-0.181-0.181-0.431-0.293-0.707-0.293s-0.526 0.112-0.707 0.293v0l-9.293 9.293v4.414h4.414l9.293-9.293c0.181-0.181 0.293-0.431 0.293-0.707s-0.112-0.526-0.293-0.707v0zM19.586 28h-1.586v-1.586l5-5 1.586 1.586zM26 21.586l-1.586-1.586 1.586-1.586 1.586 1.586z"></path>
<path d="M12 30h-6c-1.104-0.001-1.999-0.896-2-2v-24c0.001-1.104 0.896-1.999 2-2h16c1.104 0.001 1.999 0.896 2 2v10h-2v-10h-16v24h6z"></path>
</svg>
