<!-- Generated by IcoMoon.io -->
<svg version="1.1" xmlns="http://www.w3.org/2000/svg" width="32" height="32" viewBox="0 0 32 32">
<title>link</title>
<path d="M6.9 28c-1.5 0-3.1-0.6-4.3-1.8-2.4-2.4-2.4-6.1 0-8.5l8-8c2.4-2.4 6.1-2.4 8.5 0s2.4 6.1 0 8.5l-2.1 2.1-1.4-1.4 2.1-2.1c1.6-1.6 1.6-4.1 0-5.7s-4.1-1.6-5.7 0l-8 8c-1.6 1.6-1.6 4.1 0 5.7s4.1 1.6 5.7 0l1.4 1.4c-1.1 1.2-2.6 1.8-4.2 1.8z"></path>
<path d="M17 25c-1.5 0-3.1-0.6-4.3-1.8-2.4-2.4-2.4-6.1 0-8.5l2.1-2.1 1.4 1.4-2.1 2.1c-1.6 1.6-1.6 4.1 0 5.7s4.1 1.6 5.7 0l8-8c1.6-1.6 1.6-4.1 0-5.7s-4.1-1.6-5.7 0l-1.4-1.4c2.4-2.4 6.1-2.4 8.5 0s2.4 6.1 0 8.5l-8 8c-1.1 1.2-2.6 1.8-4.2 1.8z"></path>
</svg>
