<!-- Generated by IcoMoon.io -->
<svg version="1.1" xmlns="http://www.w3.org/2000/svg" width="32" height="32" viewBox="0 0 32 32">
<title>location</title>
<path d="M16 18c-2.8 0-5-2.2-5-5s2.2-5 5-5 5 2.2 5 5-2.2 5-5 5zM16 10c-1.7 0-3 1.3-3 3s1.3 3 3 3 3-1.3 3-3-1.3-3-3-3z"></path>
<path d="M16 30l-8.4-9.9c0-0.1-0.3-0.5-0.3-0.5-1.5-1.9-2.3-4.2-2.3-6.6 0-6.1 4.9-11 11-11s11 4.9 11 11c0 2.4-0.8 4.7-2.2 6.6v0l-0.3 0.4-8.5 10zM8.8 18.4c0 0 0.2 0.3 0.3 0.4l6.9 8.1 6.9-8.1c0-0.1 0.3-0.4 0.3-0.4 1.2-1.6 1.8-3.4 1.8-5.4 0-5-4-9-9-9s-9 4-9 9c0 1.9 0.6 3.8 1.8 5.4z"></path>
</svg>
