<!-- Generated by IcoMoon.io -->
<svg version="1.1" xmlns="http://www.w3.org/2000/svg" width="32" height="32" viewBox="0 0 32 32">
<title>no-image</title>
<path d="M30 3.414l-1.414-1.414-26.586 26.586 1.414 1.414 2-2h20.586c1.104-0.002 1.998-0.896 2-2v-20.586zM26 26h-18.586l7.793-7.793 2.379 2.379c0.362 0.362 0.862 0.586 1.414 0.586s1.052-0.224 1.414-0.586l1.586-1.586 4 3.997zM26 20.168l-2.586-2.586c-0.362-0.362-0.862-0.586-1.414-0.586s-1.052 0.224-1.414 0.586l-1.586 1.586-2.377-2.377 9.377-9.377z"></path>
<path d="M6 22v-3l5-4.997 1.373 1.373 1.416-1.416-1.375-1.375c-0.362-0.362-0.862-0.586-1.414-0.586s-1.052 0.224-1.414 0.586l-3.586 3.586v-10.172h16v-2h-16c-1.104 0.001-1.999 0.896-2 2v16z"></path>
</svg>
