<!-- Generated by IcoMoon.io -->
<svg version="1.1" xmlns="http://www.w3.org/2000/svg" width="32" height="32" viewBox="0 0 32 32">
<title>no-ticket</title>
<path d="M28 6h-0.586l2.586-2.586-1.414-1.414-26.586 26.586 1.414 1.414 4-4h20.586c1.104-0.002 1.998-0.896 2-2v-5c0-0.552-0.448-1-1-1v0c-1.105 0-2-0.895-2-2s0.895-2 2-2v0c0.552 0 1-0.448 1-1v0-5c-0.001-1.104-0.896-1.999-2-2h-0zM28 12.127c-1.739 0.46-3.001 2.019-3.001 3.873s1.262 3.414 2.973 3.867l0.028 0.006v4.127h-7v-3h-2v3h-9.586l9.586-9.586v4.586h2v-6.586l4.414-4.414h2.586z"></path>
<path d="M4 12.127v-4.127h15v-2h-15c-1.104 0.001-1.999 0.896-2 2v5c0 0.552 0.448 1 1 1v0c1.105 0 2 0.895 2 2s-0.895 2-2 2v0c-0.552 0-1 0.448-1 1v0 5h2v-4.127c1.739-0.46 3.001-2.019 3.001-3.873s-1.262-3.414-2.973-3.867l-0.028-0.006z"></path>
</svg>
