<!-- Generated by IcoMoon.io -->
<svg version="1.1" xmlns="http://www.w3.org/2000/svg" width="32" height="32" viewBox="0 0 32 32">
<title>notification</title>
<path d="M28.7 19.3l-2.7-2.7v-3.6c0-5.1-3.9-9.4-9-9.9v-2.1h-2v2.1c-5.1 0.5-9 4.8-9 9.9v3.6l-2.7 2.7c-0.2 0.2-0.3 0.4-0.3 0.7v3c0 0.6 0.4 1 1 1h7v0.8c0 2.6 1.9 4.9 4.5 5.2 2.8 0.3 5.2-1.7 5.5-4.5 0-0.2 0-0.3 0-0.5v-1h7c0.6 0 1-0.4 1-1v-3c0-0.3-0.1-0.5-0.3-0.7zM19 25c0 1.7-1.3 3-3 3s-3-1.3-3-3v-1h6v1zM27 22h-22v-1.6l2.7-2.7c0.2-0.2 0.3-0.4 0.3-0.7v-4c0-4.4 3.6-8 8-8s8 3.6 8 8v4c0 0.3 0.1 0.5 0.3 0.7l2.7 2.7v1.6z"></path>
</svg>
