<!-- Generated by IcoMoon.io -->
<svg version="1.1" xmlns="http://www.w3.org/2000/svg" width="32" height="32" viewBox="0 0 32 32">
<title>order-details</title>
<path d="M19 21h-6c-1.657 0-3 1.343-3 3v0 2h2v-2c0-0.552 0.448-1 1-1v0h6c0.552 0 1 0.448 1 1v0 2h2v-2c0-1.657-1.343-3-3-3v0z"></path>
<path d="M16 20c2.209 0 4-1.791 4-4s-1.791-4-4-4c-2.209 0-4 1.791-4 4v0c0 2.209 1.791 4 4 4v0zM16 14c1.105 0 2 0.895 2 2s-0.895 2-2 2c-1.105 0-2-0.895-2-2v0c0-1.105 0.895-2 2-2v0z"></path>
<path d="M25 5h-3v-1c0-1.105-0.895-2-2-2v0h-8c-1.105 0-2 0.895-2 2v0 1h-3c-1.105 0-2 0.895-2 2v0 21c0 1.105 0.895 2 2 2v0h18c1.105 0 2-0.895 2-2v0-21c0-1.105-0.895-2-2-2v0zM12 4h8v4h-8zM25 28h-18v-21h3v3h12v-3h3z"></path>
</svg>
