<!-- Generated by IcoMoon.io -->
<svg version="1.1" xmlns="http://www.w3.org/2000/svg" width="32" height="32" viewBox="0 0 32 32">
<title>paste</title>
<path d="M26 20h-8.17l2.58-2.59-1.41-1.41-5 5 5 5 1.41-1.41-2.58-2.59h8.17v8h2v-8c0-1.105-0.895-2-2-2v0z"></path>
<path d="M23.71 9.29l-7-7c-0.181-0.179-0.43-0.29-0.704-0.29-0.002 0-0.004 0-0.006 0h-10c-1.105 0-2 0.895-2 2v0 24c0 1.105 0.895 2 2 2v0h8v-2h-8v-24h8v6c0 1.105 0.895 2 2 2v0h6v2h2v-4c0-0.002 0-0.004 0-0.006 0-0.275-0.111-0.524-0.29-0.704l0 0zM16 4.41l5.59 5.59h-5.59z"></path>
</svg>
