<!-- Generated by IcoMoon.io -->
<svg version="1.1" xmlns="http://www.w3.org/2000/svg" width="32" height="32" viewBox="0 0 32 32">
<title>plane</title>
<path d="M29.37 14.75l-9.37-4.75v-4c0-2.209-1.791-4-4-4s-4 1.791-4 4v0 4l-9.37 4.75c-0.372 0.151-0.63 0.51-0.63 0.929 0 0 0 0.001 0 0.001v-0 5c0 0.552 0.448 1 1 1v0c0.104-0.002 0.204-0.021 0.297-0.052l-0.007 0.002 8.71-3.63v5l-3.45 1.72c-0.329 0.168-0.55 0.505-0.55 0.893 0 0.002 0 0.005 0 0.007v-0 3.38c0 0.552 0.448 1 1 1v0c0.042 0.007 0.091 0.011 0.14 0.011s0.098-0.004 0.145-0.012l-0.005 0.001 6.72-2 6.72 2c0.042 0.007 0.091 0.011 0.14 0.011s0.098-0.004 0.145-0.012l-0.005 0.001c0.552 0 1-0.448 1-1v0-3.38c0-0.002 0-0.005 0-0.007 0-0.388-0.221-0.725-0.544-0.89l-0.006-0.003-3.45-1.72v-5l8.71 3.61c0.086 0.029 0.186 0.048 0.289 0.050l0.001 0c0.552 0 1-0.448 1-1v0-5c-0.008-0.411-0.264-0.761-0.623-0.908l-0.007-0.002zM28 19.15l-10-4.15v9.24l4 2v1.43l-6-1.75-6 1.75v-1.43l4-2v-9.24l-10 4.15v-2.85l10-5.070v-5.23c0-1.105 0.895-2 2-2s2 0.895 2 2v0 5.23l10 5.070z"></path>
</svg>
