<!-- Generated by IcoMoon.io -->
<svg version="1.1" xmlns="http://www.w3.org/2000/svg" width="32" height="32" viewBox="0 0 32 32">
<title>policy</title>
<path d="M30 18c0-0.004 0-0.008 0-0.012 0-3.314-2.686-6-6-6s-6 2.686-6 6c0 1.774 0.77 3.369 1.994 4.467l0.006 0.005v7.54l4-1.893 4 1.893v-7.54c1.229-1.099 1.999-2.69 2-4.46v-0zM26 26.84l-2-0.947-2 0.947v-3.19c0.595 0.222 1.283 0.35 2 0.35s1.405-0.128 2.041-0.363l-0.041 0.013zM24 22c-2.209 0-4-1.791-4-4s1.791-4 4-4c2.209 0 4 1.791 4 4v0c-0.003 2.208-1.792 3.997-4 4h-0z"></path>
<path d="M9 14h7v2h-7v-2z"></path>
<path d="M9 8h10v2h-10v-2z"></path>
<path d="M6 30c-1.104-0.001-1.999-0.896-2-2v-24c0.001-1.104 0.896-1.999 2-2h16c1.104 0.001 1.999 0.896 2 2v4h-2v-4h-16v24h10v2z"></path>
</svg>
