<!-- Generated by IcoMoon.io -->
<svg version="1.1" xmlns="http://www.w3.org/2000/svg" width="32" height="32" viewBox="0 0 32 32">
<title>receipt</title>
<path d="M21 16h2v2h-2v-2z"></path>
<path d="M9 16h8v2h-8v-2z"></path>
<path d="M21 12h2v2h-2v-2z"></path>
<path d="M9 12h8v2h-8v-2z"></path>
<path d="M9 8h14v2h-14v-2z"></path>
<path d="M25 2h-18c-1.104 0.001-1.999 0.896-2 2v25c0 0.552 0.448 1 1 1v0h1c0 0 0 0 0.001 0 0.326 0 0.615-0.156 0.798-0.397l0.002-0.003 2.2-2.933 2.2 2.933c0.191 0.232 0.479 0.378 0.8 0.378s0.609-0.146 0.799-0.376l0.001-0.002 2.2-2.933 2.2 2.933c0.191 0.232 0.479 0.378 0.8 0.378s0.609-0.146 0.799-0.376l0.001-0.002 2.2-2.933 2.2 2.933c0.184 0.244 0.474 0.4 0.8 0.4 0 0 0 0 0 0h1c0.552 0 1-0.448 1-1v0-25c-0.001-1.104-0.896-1.999-2-2h-0zM25 27.333l-2.2-2.933c-0.191-0.232-0.479-0.378-0.8-0.378s-0.609 0.146-0.799 0.376l-0.001 0.002-2.2 2.933-2.2-2.933c-0.191-0.232-0.479-0.378-0.8-0.378s-0.609 0.146-0.799 0.376l-0.001 0.002-2.2 2.933-2.2-2.933c-0.191-0.232-0.479-0.378-0.8-0.378s-0.609 0.146-0.799 0.376l-0.001 0.002-2.2 2.933v-23.333h18z"></path>
</svg>
