<!-- Generated by IcoMoon.io -->
<svg version="1.1" xmlns="http://www.w3.org/2000/svg" width="32" height="32" viewBox="0 0 32 32">
<title>result</title>
<path d="M14 23h8v2h-8v-2z"></path>
<path d="M10 23h2v2h-2v-2z"></path>
<path d="M14 18h8v2h-8v-2z"></path>
<path d="M10 18h2v2h-2v-2z"></path>
<path d="M14 13h8v2h-8v-2z"></path>
<path d="M10 13h2v2h-2v-2z"></path>
<path d="M25 5h-3v-1c0-1.105-0.895-2-2-2v0h-8c-1.105 0-2 0.895-2 2v0 1h-3c-1.105 0-2 0.895-2 2v0 21c0 1.105 0.895 2 2 2v0h18c1.105 0 2-0.895 2-2v0-21c0-1.105-0.895-2-2-2v0zM12 4h8v4h-8zM25 28h-18v-21h3v3h12v-3h3z"></path>
</svg>
