<!-- Generated by IcoMoon.io -->
<svg version="1.1" xmlns="http://www.w3.org/2000/svg" width="32" height="32" viewBox="0 0 32 32">
<title>result--old</title>
<path d="M10 13h2v2h-2v-2z"></path>
<path d="M14 13h8v2h-8v-2z"></path>
<path d="M10 18h2v2h-2v-2z"></path>
<path d="M10 23h2v2h-2v-2z"></path>
<path d="M7 28v-21h3v3h12v-3h3v8h2v-8c0-1.105-0.895-2-2-2v0h-3v-1c0-1.105-0.895-2-2-2v0h-8c-1.105 0-2 0.895-2 2v0 1h-3c-1.105 0-2 0.895-2 2v0 21c0 1.105 0.895 2 2 2v0h9v-2zM12 4h8v4h-8z"></path>
<path d="M18 19v2.413c1.244-2.054 3.466-3.405 6.004-3.405 3.864 0 6.996 3.132 6.996 6.996s-3.132 6.996-6.996 6.996c-0.001 0-0.003 0-0.004 0h0v-2c0.002 0 0.004 0 0.006 0 2.761 0 5-2.239 5-5s-2.239-5-5-5c-2.038 0-3.791 1.219-4.57 2.968l-0.013 0.032h2.576v2h-6v-6z"></path>
</svg>
