<!-- Generated by IcoMoon.io -->
<svg version="1.1" xmlns="http://www.w3.org/2000/svg" width="32" height="32" viewBox="0 0 32 32">
<title>rule--cancelled</title>
<path d="M30 24c0-3.314-2.686-6-6-6s-6 2.686-6 6c0 3.314 2.686 6 6 6v0c3.312-0.004 5.996-2.688 6-6v-0zM28 24c-0.004 0.746-0.214 1.443-0.577 2.036l0.010-0.017-5.452-5.452c0.576-0.353 1.273-0.563 2.018-0.567h0.001c2.208 0.003 3.997 1.792 4 4v0zM20 24c0.004-0.746 0.214-1.443 0.577-2.036l-0.010 0.017 5.452 5.452c-0.576 0.353-1.273 0.563-2.018 0.567h-0.001c-2.208-0.003-3.997-1.792-4-4v-0z"></path>
<path d="M8 16h10v2h-10v-2z"></path>
<path d="M8 10h12v2h-12v-2z"></path>
<path d="M14 27.733l-5.234-2.791c-2.857-1.543-4.766-4.515-4.766-7.933 0-0.003 0-0.007 0-0.010v0-13h20v11h2v-11c-0.001-1.104-0.896-1.999-2-2h-20c-1.104 0.001-1.999 0.896-2 2v13c0 0.004 0 0.008 0 0.012 0 4.177 2.332 7.81 5.766 9.666l0.058 0.029 6.176 3.293z"></path>
</svg>
