<!-- Generated by IcoMoon.io -->
<svg version="1.1" xmlns="http://www.w3.org/2000/svg" width="32" height="32" viewBox="0 0 32 32">
<title>rule--draft</title>
<path d="M29.707 19.293l-3-3c-0.181-0.181-0.431-0.293-0.707-0.293s-0.526 0.112-0.707 0.293v0l-9.293 9.293v4.414h4.414l9.293-9.293c0.181-0.181 0.293-0.431 0.293-0.707s-0.112-0.526-0.293-0.707v0zM19.586 28h-1.586v-1.586l5-5 1.586 1.586zM26 21.586l-1.586-1.586 1.586-1.586 1.586 1.586z"></path>
<path d="M8 16h10v2h-10v-2z"></path>
<path d="M8 10h12v2h-12v-2z"></path>
<path d="M26 4c-0.001-1.104-0.896-1.999-2-2h-20c-1.104 0.001-1.999 0.896-2 2v13c0 0.004 0 0.008 0 0.012 0 4.177 2.332 7.81 5.766 9.666l0.058 0.029 5.176 2.76v-2.267l-4.234-2.258c-2.857-1.543-4.766-4.515-4.766-7.933 0-0.003 0-0.007 0-0.010v0-13h20v9h2z"></path>
</svg>
