<!-- Generated by IcoMoon.io -->
<svg version="1.1" xmlns="http://www.w3.org/2000/svg" width="32" height="32" viewBox="0 0 32 32">
<title>rule</title>
<path d="M10 16h12v2h-12v-2z"></path>
<path d="M10 10h12v2h-12v-2z"></path>
<path d="M16 30l-6.176-3.293c-3.492-1.885-5.824-5.518-5.824-9.695 0-0.004 0-0.008 0-0.013v0.001-13c0.001-1.104 0.896-1.999 2-2h20c1.104 0.001 1.999 0.896 2 2v13c0 0.003 0 0.008 0 0.012 0 4.177-2.332 7.81-5.766 9.666l-0.058 0.029zM6 4v13c0 0.003 0 0.006 0 0.010 0 3.418 1.909 6.39 4.718 7.909l0.048 0.024 5.234 2.791 5.234-2.791c2.857-1.543 4.766-4.515 4.766-7.933 0-0.003 0-0.007 0-0.010v0.001-13z"></path>
</svg>
