<!-- Generated by IcoMoon.io -->
<svg version="1.1" xmlns="http://www.w3.org/2000/svg" width="32" height="32" viewBox="0 0 32 32">
<title>rule--data-quality</title>
<path fill="#040602" d="M30 28.6l-2.8-2.8c0.5-0.8 0.8-1.8 0.8-2.8 0-2.8-2.2-5-5-5s-5 2.2-5 5 2.2 5 5 5c1 0 2-0.3 2.8-0.8l2.8 2.8 1.4-1.4zM20 23c0-1.7 1.3-3 3-3s3 1.3 3 3-1.3 3-3 3-3-1.3-3-3z"></path>
<path fill="#000" d="M8 16h10v2h-10v-2z"></path>
<path fill="#000" d="M8 10h12v2h-12v-2z"></path>
<path fill="#000" d="M14 27.7l-5.2-2.8c-3-1.5-4.8-4.6-4.8-7.9v-13h20v11h2v-11c0-1.1-0.9-2-2-2h-20c-1.1 0-2 0.9-2 2v13c0 4.1 2.2 7.8 5.8 9.7l6.2 3.3v-2.3z"></path>
</svg>
