<!-- Generated by IcoMoon.io -->
<svg version="1.1" xmlns="http://www.w3.org/2000/svg" width="32" height="32" viewBox="0 0 32 32">
<title>scales</title>
<path d="M20 16c0 2.8 2.2 5 5 5s5-2.2 5-5c0-0.2 0-0.3-0.1-0.4l-4-8v-0.1c-0.2-0.3-0.6-0.5-0.9-0.5h-6.2c-0.3-0.8-1-1.5-1.8-1.8v-3.2h-2v3.2c-0.8 0.3-1.5 1-1.8 1.8h-6.2c-0.4 0-0.7 0.2-0.9 0.6l-4 8c-0.1 0.1-0.1 0.2-0.1 0.4 0 2.8 2.2 5 5 5s5-2.2 5-5c0-0.2 0-0.3-0.1-0.4l-3.3-6.6h4.6c0.3 0.8 1 1.5 1.8 1.8v17.2h-9v2h20v-2h-9v-17.2c0.8-0.3 1.5-1 1.8-1.8h4.6l-3.3 6.6c-0.1 0.1-0.1 0.2-0.1 0.4zM7 19c-1.3 0-2.4-0.8-2.8-2h5.6c-0.4 1.2-1.5 2-2.8 2zM9.4 15h-4.8l2.4-4.8 2.4 4.8zM16 9c-0.6 0-1-0.4-1-1s0.4-1 1-1 1 0.4 1 1-0.4 1-1 1zM25 10.2l2.4 4.8h-4.8l2.4-4.8zM27.8 17c-0.4 1.2-1.5 2-2.8 2s-2.4-0.8-2.8-2h5.6z"></path>
</svg>
