<!-- Generated by IcoMoon.io -->
<svg version="1.1" xmlns="http://www.w3.org/2000/svg" width="32" height="32" viewBox="0 0 32 32">
<title>send--repeat</title>
<path d="M24.7 1.3c-0.3-0.3-0.7-0.4-1-0.2l-22 8c-0.5 0.2-0.8 0.8-0.6 1.3 0.1 0.3 0.3 0.5 0.6 0.6l9.6 3.8 3.8 9.6c0.1 0.4 0.5 0.6 0.9 0.6s0.8-0.3 0.9-0.7l8-22c0.2-0.3 0.1-0.7-0.2-1zM16 21.2l-2.8-7 4.8-4.8-1.4-1.4-4.8 4.8-7-2.8 17.5-6.3-6.3 17.5z"></path>
<path d="M25 18l-5 5 1.4 1.4 2.6-2.6v6.2h-6v2h6c1.1 0 2-0.9 2-2v-6.2l2.6 2.6 1.4-1.4-5-5z"></path>
</svg>
