<!-- Generated by IcoMoon.io -->
<svg version="1.1" xmlns="http://www.w3.org/2000/svg" width="32" height="32" viewBox="0 0 32 32">
<title>settings</title>
<path d="M16 20.8c-2.6 0-4.8-2.2-4.8-4.8s2.2-4.8 4.8-4.8 4.8 2.2 4.8 4.8-2.2 4.8-4.8 4.8zM16 13.2c-1.5 0-2.8 1.3-2.8 2.8s1.3 2.8 2.8 2.8 2.8-1.3 2.8-2.8-1.3-2.8-2.8-2.8z"></path>
<path d="M18.1 29.1h-4.4c-0.5 0-0.9-0.4-1-0.9l-0.3-3.1c-0.9-0.4-1.8-0.9-2.5-1.5l-2.9 1.2c-0.5 0.2-1 0-1.3-0.4l-2.2-3.7c-0.3-0.4-0.1-1 0.3-1.3l2.5-1.9c-0.2-1-0.2-2 0-3l-2.5-1.9c-0.4-0.3-0.5-0.9-0.3-1.3l2.2-3.8c0.3-0.4 0.8-0.6 1.3-0.4l3.1 1.3c0.7-0.6 1.5-1.1 2.5-1.5l0.3-3.1c0.1-0.5 0.5-0.9 1-0.9h4.4c0.5 0 0.9 0.4 1 0.9l0.3 3.1c0.9 0.4 1.8 0.9 2.5 1.5l2.9-1.2c0.5-0.2 1 0 1.3 0.4l2.2 3.8c0.3 0.4 0.1 1-0.3 1.3l-2.5 1.8c0.1 0.4 0.1 0.9 0.1 1.5 0 0.5-0.1 1-0.2 1.5l2.4 1.9c0.4 0.3 0.5 0.9 0.3 1.3l-2.2 3.8c-0.3 0.4-0.8 0.6-1.3 0.4l-2.9-1.2c-0.7 0.6-1.5 1.1-2.5 1.5l-0.3 3.1c-0.1 0.4-0.5 0.8-1 0.8zM14.6 27.1h2.6l0.3-2.8c0-0.4 0.3-0.7 0.7-0.8 1.2-0.4 2.1-0.9 2.8-1.7 0.3-0.3 0.7-0.4 1.1-0.2l2.7 1.2 1.3-2.3-2.3-1.8c-0.4-0.3-0.5-0.8-0.3-1.2 0.2-0.5 0.3-1 0.3-1.5 0-0.6-0.1-1.2-0.2-1.7-0.1-0.4 0.1-0.7 0.4-1l2.3-1.8-1.3-2.3-2.7 1.2c-0.4 0.2-0.8 0.1-1.1-0.2-0.7-0.7-1.7-1.3-2.8-1.7-0.4-0.1-0.6-0.5-0.7-0.8l-0.3-2.8h-2.6l-0.3 2.8c0 0.4-0.3 0.7-0.7 0.8-1.2 0.4-2.1 0.9-2.8 1.7-0.3 0.3-0.7 0.4-1.1 0.2l-2.9-1.1-1.3 2.2 2.3 1.8c0.3 0.2 0.5 0.6 0.4 1-0.3 1.2-0.3 2.2 0 3.4 0.1 0.4-0.1 0.8-0.4 1l-2.3 1.8 1.3 2.3 2.7-1.2c0.4-0.2 0.8-0.1 1.1 0.2 0.7 0.7 1.7 1.3 2.8 1.7 0.4 0.1 0.6 0.5 0.7 0.8l0.3 2.8z"></path>
</svg>
