<?xml version="1.0" encoding="utf-8"?>
<!-- Generator: Adobe Illustrator 25.2.0, SVG Export Plug-In . SVG Version: 6.00 Build 0)  -->
<svg version="1.1" id="Ebene_1" xmlns="http://www.w3.org/2000/svg" xmlns:xlink="http://www.w3.org/1999/xlink" x="0px" y="0px"
	 viewBox="0 0 32 32" style="enable-background:new 0 0 32 32;" xml:space="preserve">
<style type="text/css">
	.st0{fill:none;stroke:#212121;stroke-width:2;stroke-linecap:round;stroke-linejoin:round;stroke-miterlimit:10;}
	.st1{fill:none;}
</style>
<g>
	<g transform="translate(.5 .5)">
		<circle class="st0" cx="15.5" cy="15.5" r="3.8"/>
		<rect id="_Transparent_Rectangle_" x="-0.5" y="-0.5" class="st1" width="32" height="32"/>
		<path class="st0" d="M24.3,15.5c0-0.7-0.1-1.3-0.2-1.9l3-2.3l-2.2-3.8l-3.5,1.5c-0.9-0.9-2-1.5-3.2-1.9l-0.4-3.7h-4.4l-0.4,3.7
			c-1.2,0.4-2.3,1-3.2,1.9L6.1,7.5l-2.2,3.8l3,2.3c-0.3,1.3-0.3,2.5,0,3.8l-3,2.3l2.2,3.8l3.5-1.5c0.9,0.9,2,1.5,3.2,1.9l0.4,3.7
			h4.4l0.4-3.7c1.2-0.4,2.3-1,3.2-1.9l3.5,1.5l2.2-3.8l-3-2.3C24.2,16.7,24.3,16.1,24.3,15.5z"/>
	</g>
</g>
</svg>
