<!-- Generated by IcoMoon.io -->
<svg version="1.1" xmlns="http://www.w3.org/2000/svg" width="32" height="32" viewBox="0 0 32 32">
<title>shopping--cart</title>
<path d="M12 28c0 1.105-0.895 2-2 2s-2-0.895-2-2c0-1.105 0.895-2 2-2s2 0.895 2 2z"></path>
<path d="M26 28c0 1.105-0.895 2-2 2s-2-0.895-2-2c0-1.105 0.895-2 2-2s2 0.895 2 2z"></path>
<path d="M28 7h-22.2l-0.8-4.2c-0.1-0.5-0.5-0.8-1-0.8h-4v2h3.2l3.8 19.2c0.1 0.5 0.5 0.8 1 0.8h18v-2h-17.2l-0.8-4h18c0.5 0 0.9-0.3 1-0.8l2-9c0.1-0.5-0.2-1.1-0.8-1.2 0 0-0.1 0-0.2 0zM25.2 16h-17.6l-1.4-7h20.5l-1.5 7z"></path>
</svg>
