<!-- Generated by IcoMoon.io -->
<svg version="1.1" xmlns="http://www.w3.org/2000/svg" width="32" height="32" viewBox="0 0 32 32">
<title>task--tools</title>
<path d="M28.5 32c-0.003 0-0.006 0-0.010 0-0.964 0-1.835-0.392-2.465-1.025l-4.128-4.128c-0.421 0.097-0.904 0.153-1.401 0.153-3.588 0-6.496-2.908-6.496-6.496 0-0.946 0.202-1.844 0.565-2.654l-0.016 0.041 0.588-1.34 4.156 4.156c0.183 0.175 0.432 0.283 0.707 0.283s0.523-0.108 0.707-0.284l-0 0c0.181-0.181 0.294-0.431 0.294-0.707s-0.112-0.526-0.293-0.707v0l-4.156-4.157 1.34-0.588c0.769-0.347 1.667-0.549 2.613-0.549 3.588 0 6.497 2.909 6.497 6.497 0 0.496-0.056 0.98-0.161 1.444l0.008-0.044 4.127 4.128c0.633 0.633 1.025 1.508 1.025 2.475 0 1.933-1.567 3.5-3.5 3.5v0zM22.47 24.591l4.969 4.969c0.275 0.263 0.649 0.425 1.061 0.425s0.785-0.162 1.061-0.426l-0.001 0.001c0.272-0.271 0.44-0.646 0.44-1.060s-0.168-0.789-0.44-1.060l-4.969-4.97 0.188-0.582c0.14-0.416 0.221-0.894 0.221-1.391 0-2.483-2.013-4.496-4.496-4.496-0.001 0-0.003 0-0.004 0h0q-0.126 0-0.25 0.007l1.872 1.872c0.543 0.543 0.879 1.293 0.879 2.121s-0.336 1.578-0.879 2.121v0c-0.55 0.526-1.298 0.85-2.121 0.85s-1.571-0.324-2.123-0.851l0.001 0.001-1.872-1.872q-0.007 0.125-0.007 0.251c0 0.001 0 0.002 0 0.004 0 2.483 2.013 4.497 4.497 4.497 0.497 0 0.976-0.081 1.423-0.23l-0.032 0.009z"></path>
<path d="M25 5h-3v-1c-0.003-1.103-0.897-1.997-2-2h-8c-1.103 0.003-1.997 0.897-2 2v1h-3c-1.103 0.003-1.997 0.897-2 2v21c0.003 1.103 0.897 1.997 2 2h7v-2h-7v-21h3v3h12v-3h3v5h2v-5c-0.003-1.103-0.897-1.997-2-2h-0zM20 8h-8v-4h8z"></path>
</svg>
