<!-- Generated by IcoMoon.io -->
<svg version="1.1" xmlns="http://www.w3.org/2000/svg" width="32" height="32" viewBox="0 0 32 32">
<title>task--view</title>
<path d="M24 24c0 1.105-0.895 2-2 2s-2-0.895-2-2c0-1.105 0.895-2 2-2s2 0.895 2 2z"></path>
<path d="M29.777 23.479c-1.263-3.156-4.249-5.367-7.763-5.478l-0.014-0c-3.528 0.112-6.513 2.323-7.756 5.42l-0.021 0.058-0.223 0.521 0.223 0.521c1.263 3.156 4.249 5.367 7.763 5.478l0.014 0c3.528-0.112 6.513-2.323 7.756-5.42l0.021-0.058 0.223-0.521zM22 28c-2.209 0-4-1.791-4-4s1.791-4 4-4c2.209 0 4 1.791 4 4v0c-0.003 2.208-1.792 3.997-4 4h-0z"></path>
<path d="M12 28h-5v-21h3v3h12v-3h3v9h2v-9c0-1.105-0.895-2-2-2v0h-3v-1c0-1.105-0.895-2-2-2v0h-8c-1.105 0-2 0.895-2 2v0 1h-3c-1.105 0-2 0.895-2 2v0 21c0 1.105 0.895 2 2 2v0h5zM12 4h8v4h-8z"></path>
</svg>
