<!-- Generated by IcoMoon.io -->
<svg version="1.1" xmlns="http://www.w3.org/2000/svg" width="32" height="32" viewBox="0 0 32 32">
<title>task--asset-view</title>
<path d="M22.5 26c-1.933 0-3.5-1.567-3.5-3.5s1.567-3.5 3.5-3.5c1.933 0 3.5 1.567 3.5 3.5v0c-0.002 1.932-1.568 3.498-3.5 3.5h-0zM22.5 21c-0.828 0-1.5 0.672-1.5 1.5s0.672 1.5 1.5 1.5c0.828 0 1.5-0.672 1.5-1.5v0c-0.001-0.828-0.672-1.499-1.5-1.5h-0z"></path>
<path d="M22.5 31c-4.694 0-8.5-3.806-8.5-8.5s3.806-8.5 8.5-8.5c4.694 0 8.5 3.806 8.5 8.5v0c-0.006 4.692-3.808 8.494-8.499 8.5h-0.001zM22.5 16c-3.59 0-6.5 2.91-6.5 6.5s2.91 6.5 6.5 6.5c3.59 0 6.5-2.91 6.5-6.5v0c-0.004-3.588-2.912-6.496-6.5-6.5h-0z"></path>
<path d="M25 5h-3v-1c-0.003-1.103-0.897-1.997-2-2h-8c-1.103 0.003-1.997 0.897-2 2v1h-3c-1.103 0.003-1.997 0.897-2 2v21c0.003 1.103 0.897 1.997 2 2h5v-2h-5v-21h3v3h12v-3h3v5h2v-5c-0.003-1.103-0.897-1.997-2-2h-0zM20 8h-8v-4h8z"></path>
</svg>
