<!-- Generated by IcoMoon.io -->
<svg version="1.1" xmlns="http://www.w3.org/2000/svg" width="32" height="32" viewBox="0 0 32 32">
<title>task--location</title>
<path d="M26 21c0 1.105-0.895 2-2 2s-2-0.895-2-2c0-1.105 0.895-2 2-2s2 0.895 2 2z"></path>
<path d="M24 31l-4.779-6.402c-0.76-0.986-1.219-2.238-1.221-3.598v-0c0-3.314 2.686-6 6-6s6 2.686 6 6v0c-0.002 1.362-0.463 2.616-1.235 3.617l0.010-0.014zM24 17c-2.208 0.003-3.997 1.792-4 4v0c0.003 0.907 0.311 1.741 0.827 2.406l-0.007-0.009 3.18 4.259 3.176-4.255c0.51-0.657 0.82-1.493 0.824-2.401v-0.001c-0.003-2.208-1.792-3.997-4-4h-0z"></path>
<path d="M25 5h-3v-1c-0.003-1.103-0.897-1.997-2-2h-8c-1.103 0.003-1.997 0.897-2 2v1h-3c-1.103 0.003-1.997 0.897-2 2v21c0.003 1.103 0.897 1.997 2 2h9v-2h-9v-21h3v3h12v-3h3v5h2v-5c-0.003-1.103-0.897-1.997-2-2h-0zM20 8h-8v-4h8z"></path>
</svg>
