<!-- Generated by IcoMoon.io -->
<svg version="1.1" xmlns="http://www.w3.org/2000/svg" width="32" height="32" viewBox="0 0 32 32">
<title>task--star</title>
<path d="M23 17l2.23 4.32 4.77 0.68-3.5 3.167 1.5 4.833-5-2.792-5 2.792 1.5-4.833-3.5-3.167 4.9-0.68 2.1-4.32z"></path>
<path d="M25 5h-3v-1c-0.003-1.103-0.897-1.997-2-2h-8c-1.103 0.003-1.997 0.897-2 2v1h-3c-1.103 0.003-1.997 0.897-2 2v21c0.003 1.103 0.897 1.997 2 2h7v-2h-7v-21h3v3h12v-3h3v7h2v-7c-0.003-1.103-0.897-1.997-2-2h-0zM20 8h-8v-4h8z"></path>
</svg>
