<!-- Generated by IcoMoon.io -->
<svg version="1.1" xmlns="http://www.w3.org/2000/svg" width="32" height="32" viewBox="0 0 32 32">
<title>task--remove</title>
<path d="M26.41 25l3.59-3.59-1.41-1.41-3.59 3.59-3.59-3.59-1.41 1.41 3.59 3.59-3.59 3.59 1.41 1.41 3.59-3.59 3.59 3.59 1.41-1.41-3.59-3.59z"></path>
<path d="M25 5h-3v-1c-0.003-1.103-0.897-1.997-2-2h-8c-1.103 0.003-1.997 0.897-2 2v1h-3c-1.103 0.003-1.997 0.897-2 2v21c0.003 1.103 0.897 1.997 2 2h9v-2h-9v-21h3v3h12v-3h3v10h2v-10c-0.003-1.103-0.897-1.997-2-2h-0zM20 8h-8v-4h8z"></path>
</svg>
