<!-- Generated by IcoMoon.io -->
<svg version="1.1" xmlns="http://www.w3.org/2000/svg" width="32" height="32" viewBox="0 0 32 32">
<title>task--approved</title>
<path d="M30 20c0-0.004 0-0.008 0-0.012 0-3.314-2.686-6-6-6s-6 2.686-6 6c0 1.774 0.77 3.369 1.994 4.467l0.006 0.005v7.54l4-1.894 4 1.894v-7.54c1.229-1.099 1.999-2.69 2-4.46v-0zM26 28.84l-2-0.947-2 0.947v-3.19c0.595 0.222 1.283 0.35 2 0.35s1.405-0.128 2.041-0.363l-0.041 0.013zM24 24c-2.209 0-4-1.791-4-4s1.791-4 4-4c2.209 0 4 1.791 4 4v0c-0.003 2.208-1.792 3.997-4 4h-0z"></path>
<path d="M25 5h-3v-1c-0.003-1.103-0.897-1.997-2-2h-8c-1.103 0.003-1.997 0.897-2 2v1h-3c-1.103 0.003-1.997 0.897-2 2v21c0.003 1.103 0.897 1.997 2 2h9v-2h-9v-21h3v3h12v-3h3v5h2v-5c-0.003-1.103-0.897-1.997-2-2h-0zM20 8h-8v-4h8z"></path>
</svg>
