<!-- Generated by IcoMoon.io -->
<svg version="1.1" xmlns="http://www.w3.org/2000/svg" width="32" height="32" viewBox="0 0 32 32">
<title>ticket</title>
<path d="M29 14c0.552 0 1-0.448 1-1v0-5c0-1.105-0.895-2-2-2v0h-24c-1.105 0-2 0.895-2 2v0 5c0 0.552 0.448 1 1 1v0c1.105 0 2 0.895 2 2s-0.895 2-2 2v0c-0.552 0-1 0.448-1 1v0 5c0 1.105 0.895 2 2 2v0h24c1.105 0 2-0.895 2-2v0-5c0-0.552-0.448-1-1-1v0c-1.105 0-2-0.895-2-2s0.895-2 2-2v0zM28 19.87v4.13h-7v-3h-2v3h-15v-4.13c1.733-0.464 2.989-2.020 2.989-3.87s-1.255-3.406-2.961-3.864l-0.028-0.006v-4.13h15v3h2v-3h7v4.13c-1.733 0.464-2.989 2.020-2.989 3.87s1.255 3.406 2.961 3.864l0.028 0.006z"></path>
<path d="M19 13h2v6h-2v-6z"></path>
</svg>
