<?xml version="1.0" encoding="utf-8"?>
<!-- Generator: Adobe Illustrator 25.2.0, SVG Export Plug-In . SVG Version: 6.00 Build 0)  -->
<svg version="1.1" id="Ebene_1" xmlns="http://www.w3.org/2000/svg" xmlns:xlink="http://www.w3.org/1999/xlink" x="0px" y="0px"
	 viewBox="0 0 32 32" style="enable-background:new 0 0 32 32;" xml:space="preserve">
<style type="text/css">
	.st0{fill:none;}
	.st1{fill:#212121;}
</style>
<rect id="_Transparent_Rectangle_" y="0" class="st0" width="32" height="32"/>
<g>
	<path class="st1" d="M28,3H4C3.4,3,3,3.4,3,4v24c0,0.6,0.4,1,1,1h24c0.6,0,1-0.4,1-1V4C29,3.4,28.6,3,28,3z M22.4,21L21,22.4l-5-5
		l-5,5L9.6,21l5-5l-5-5L11,9.6l5,5l5-5l1.4,1.4l-5,5L22.4,21z"/>
</g>
</svg>
