<!-- Generated by IcoMoon.io -->
<svg version="1.1" xmlns="http://www.w3.org/2000/svg" width="32" height="32" viewBox="0 0 32 32">
<title>warning--hex--filled</title>
<path d="M30.851 15.449l-6.964-11.916c-0.188-0.32-0.53-0.531-0.922-0.532h-13.929c-0.392 0.001-0.734 0.212-0.92 0.527l-0.003 0.005-6.964 11.916c-0.094 0.158-0.149 0.348-0.149 0.551s0.055 0.393 0.152 0.556l-0.003-0.005 6.964 11.916c0.188 0.32 0.53 0.532 0.922 0.532h13.929c0.392-0.001 0.734-0.212 0.92-0.527l0.003-0.005 6.964-11.916c0.094-0.158 0.149-0.348 0.149-0.551s-0.055-0.393-0.152-0.556l0.003 0.005zM14.875 8h2.25v11h-2.25zM16 25c-0.828 0-1.5-0.672-1.5-1.5s0.672-1.5 1.5-1.5c0.828 0 1.5 0.672 1.5 1.5v0c0 0.828-0.672 1.5-1.5 1.5v0z"></path>
</svg>
