<!-- Generated by IcoMoon.io -->
<svg version="1.1" xmlns="http://www.w3.org/2000/svg" width="32" height="32" viewBox="0 0 32 32">
<title>warning--hex</title>
<path d="M16 21c-0.828 0-1.5 0.672-1.5 1.5s0.672 1.5 1.5 1.5c0.828 0 1.5-0.672 1.5-1.5v0c0-0.828-0.672-1.5-1.5-1.5v0z"></path>
<path d="M15 8h2v10h-2v-10z"></path>
<path d="M23 29h-14c0 0-0 0-0 0-0.367 0-0.687-0.197-0.861-0.491l-0.003-0.005-7-12c-0.086-0.144-0.136-0.318-0.136-0.504s0.051-0.36 0.139-0.509l-0.003 0.005 7-12c0.177-0.299 0.497-0.496 0.864-0.496 0 0 0 0 0 0h14c0 0 0 0 0 0 0.367 0 0.687 0.197 0.861 0.491l0.003 0.005 7 12c0.086 0.144 0.136 0.318 0.136 0.504s-0.051 0.36-0.139 0.509l0.003-0.005-7 12c-0.177 0.299-0.497 0.496-0.864 0.496 0 0-0 0-0 0v0zM9.574 27h12.852l6.416-11-6.416-11h-12.852l-6.417 11z"></path>
</svg>
