<!-- Generated by IcoMoon.io -->
<svg version="1.1" xmlns="http://www.w3.org/2000/svg" width="32" height="32" viewBox="0 0 32 32">
<title>workspace</title>
<path d="M16 17v8h-10v-8h10zM16 15h-10c-1.105 0-2 0.895-2 2v0 8c0 1.105 0.895 2 2 2v0h10c1.105 0 2-0.895 2-2v0-8c0-1.105-0.895-2-2-2v0z"></path>
<path d="M27 6v5h-10v-5h10zM27 4h-10c-1.105 0-2 0.895-2 2v0 5c0 1.105 0.895 2 2 2v0h10c1.105 0 2-0.895 2-2v0-5c0-1.105-0.895-2-2-2v0z"></path>
<path d="M27 17v5h-5v-5h5zM27 15h-5c-1.105 0-2 0.895-2 2v0 5c0 1.105 0.895 2 2 2v0h5c1.105 0 2-0.895 2-2v0-5c0-1.105-0.895-2-2-2v0z"></path>
<path d="M11 6v5h-5v-5h5zM11 4h-5c-1.105 0-2 0.895-2 2v0 5c0 1.105 0.895 2 2 2v0h5c1.105 0 2-0.895 2-2v0-5c0-1.105-0.895-2-2-2v0z"></path>
</svg>
